<?xml version="1.0" standalone="no"?>
<!DOCTYPE svg PUBLIC "-//W3C//DTD SVG 1.1//EN" "http://www.w3.org/Graphics/SVG/1.1/DTD/svg11.dtd" >
<svg xmlns="http://www.w3.org/2000/svg" xmlns:xlink="http://www.w3.org/1999/xlink" version="1.1">
<metadata>
Created by FontForge 20170731 at Mon Apr 29 17:10:57 2013
 By Aleksey,,,
</metadata>
<defs>
<font id="HappyFox-Condensed" horiz-adv-x="270" >
  <font-face 
    font-family="Happy Fox Condensed"
    font-weight="400"
    font-stretch="condensed"
    units-per-em="1000"
    panose-1="0 0 5 6 0 0 0 0 0 0"
    ascent="800"
    descent="-200"
    x-height="733"
    cap-height="725"
    bbox="-8.28571 -120.077 573 959.041"
    underline-thickness="50"
    underline-position="-200"
    unicode-range="U+0020-2212"
  />
<missing-glyph horiz-adv-x="500" 
d="M0 0v700h500v-700h-500zM250 395l170 255h-340zM280 350l170 -255v510zM80 50h340l-170 255zM50 605v-510l170 255z" />
    <glyph glyph-name=".notdef" horiz-adv-x="500" 
d="M0 0v700h500v-700h-500zM250 395l170 255h-340zM280 350l170 -255v510zM80 50h340l-170 255zM50 605v-510l170 255z" />
    <glyph glyph-name=".null" horiz-adv-x="0" 
 />
    <glyph glyph-name="nonmarkingreturn" horiz-adv-x="333" 
 />
    <glyph glyph-name="space" unicode=" " horiz-adv-x="230" 
 />
    <glyph glyph-name="exclam" unicode="!" horiz-adv-x="220" 
d="M67 574q-2 -27 1 -154.5t5 -151.5q7 -65 5 -83q0 -18 2 -27q0 -10 6 -18q18 -25 46 -21q13 1 23 11t12 24q5 20 1 34q-6 38 -8 53q-2 10 -4.5 30.5t-3.5 30.5q0 5 -2 22.5t-2 26.5q-2 142 -1 183q1 25 1.5 70.5t0.5 59.5q0 4 0.5 13t0.5 14q3 40 -34 43q-2 0 -5 -0.5
t-5 -0.5q-15 -4 -26 -18q-13 -17 -13 -30v-111zM130 79q-38 -3 -52 -26q-4 -6 -3 -13q1 -15 12.5 -25.5t26.5 -9.5q19 0 38 12q16 11 14.5 30t-19.5 27q-2 1 -17 5z" />
    <glyph glyph-name="quotedbl" unicode="&#x22;" 
d="M168 636l10 10q12 32 16 48q3 11 3 34q0 14 -9 26q-6 8 -15 10q-24 4 -32.5 -11.5t-2.5 -40.5q0 -1 1 -3.5t1.5 -4.5t0.5 -4v-10.5t0.5 -13.5t1 -15t2.5 -13.5t5 -10t7.5 -4.5t10.5 3zM106 713q2 15 -5 27q-6 11 -16 16.5t-17 1.5q-11 -8 -14.5 -15t-4.5 -26
q-1 -3 1.5 -8.5t2.5 -8.5q1 -5 1 -15.5v-15.5q3 -31 11 -34q5 -2 15 2q19 9 26 76z" />
    <glyph glyph-name="numbersign" unicode="#" horiz-adv-x="450" 
d="M342 363q7 3 18.5 7.5t14.5 5.5q18 5 27 20q9 14 0 30q-9 14 -29 7q-5 -2 -9 -2.5t-6.5 1t-4.5 3t-3.5 5t-2 6t-0.5 7.5v7.5t0.5 8t0.5 7.5q0 1 0.5 3t0.5 3q6 55 22 126q1 6 2 12.5t2 15t2 12.5q3 15 -12 25q-17 11 -36.5 3t-23.5 -28q0 -3 -1 -8t-1 -7q0 -10 -5 -57
q-2 -9 -3 -26.5t-2 -22.5q-1 -9 -5.5 -32.5t-5.5 -36.5q0 -1 -1 -11.5t-3 -12.5t-9.5 -6t-21.5 -5q-1 0 -16 -3q-15 0 -16 15q0 10 1 14q2 16 9 44t9 41q2 10 6 29t6 34t2 28q0 4 2 12t2 11q1 9 -7 14q-13 10 -29.5 8.5t-27.5 -13.5q-2 -2 -4 -9q-1 -4 -4 -37
q-1 -7 -3.5 -34t-9.5 -59q0 -1 -0.5 -3.5t-0.5 -4.5q-1 -35 -14 -73q-9 -29 -38 -36l-36 -12q-11 -3 -20 -15q-15 -21 5 -38q16 -13 31 -14h2q3 -1 5.5 -1.5t5.5 -1.5t5.5 -2l5 -2t3.5 -2t0 -2l-8 -15q-4 -7 -45 -14t-42 -16l-3 -6q-4 -11 6 -21q12 -12 35 -14q9 -1 26 -1
q19 0 20 -19q0 -10 -2 -32q-2 -9 -6 -28.5t-6 -29.5q-10 -53 12 -79q2 -2 4 -3q4 -2 8 -2q17 -3 28 14q8 14 17 57q3 14 5.5 40t4.5 36q3 31 20 68q3 6 5.5 8t10 1t11.5 -1q10 2 15.5 0t4.5 -11q-5 -57 -11 -77q-7 -17 -8 -31q-11 -56 -12 -93q0 -9 4 -16q3 -7 20 -15
q13 -6 26 -0.5t17 19.5l3 15q1 12 3.5 36.5t4.5 36.5q0 4 1.5 12t2.5 12q9 60 23 106q4 17 23 23q4 1 12.5 2.5t12.5 2.5q24 4 35 8q16 4 21 17.5t-3 27.5q-4 8 -17 7.5t-26 -5.5t-25 -6t-14 6.5t7 31.5zM220 324q-1 0 -2.5 0.5t-3.5 1.5t-3 1q-5 4 -1 10t18 9.5t22 1.5
q4 -2 4 -4q0 -6 -2 -8q-16 -11 -32 -12zM42 255v1h1h2q0 -1 -1 -1h-2zM42 255h2l1 1h-2h-1v-1z" />
    <glyph glyph-name="ampersand" unicode="&#x26;" horiz-adv-x="600" 
d="M181 620q-5 0 -13 -0.5t-12 -1.5q-30 -3 -57 -25q-18 -16 -35 -53v-11q1 -6 -0.5 -18.5t-0.5 -19.5q12 -66 62 -171t139 -214q28 -34 69 -21q14 8 15 10q7 8 40 41q35 35 99 189.5t64 187.5q0 5 2 15t2 13q2 43 -25 68q-12 12 -22 12q-53 -2 -70 -18q-4 -4 -8 -6
q-21 -9 -54 -36q-6 -6 -18.5 -15t-15.5 -12q-14 -10 -30 1q-2 2 -5 4.5t-4 3.5q-9 8 -26 24t-25 23q-28 27 -71 30z" />
    <glyph glyph-name="quotesingle" unicode="'" horiz-adv-x="130" 
d="M61 664q8 2 10.5 4t7.5 14q16 36 18 40q3 9 5 27q1 26 -24 39q-7 4 -14 1.5t-13 0.5q-7 3 -14 -13q-15 -39 -8 -81q6 -38 32 -32z" />
    <glyph glyph-name="parenleft" unicode="(" horiz-adv-x="300" 
d="M70 189q9 -24 10 -42q0 -13 8 -38t9 -38q0 -10 8 -26q11 -41 18 -56q15 -28 55 -70q9 -9 23 -14q22 -8 43 3q17 11 13 29q-9 29 -22 47q-11 16 -29 50q-16 25 -20 49q-13 50 -24 101q-6 19 -7 40q-2 8 -7 43v36q-1 72 9 142q1 7 3 20.5t3 20.5q9 36 23 76q2 8 15 43
q10 37 33 70q2 3 8 11.5t10 13.5q12 26 -9 45q-10 10 -31 15q-43 5 -56 -34q-3 -6 -10.5 -24t-12.5 -28q-5 -21 -16 -39q-22 -49 -28 -85q-3 -12 -8.5 -44t-9.5 -48q-5 -24 -6.5 -130t5.5 -139z" />
    <glyph glyph-name="parenright" unicode=")" horiz-adv-x="300" 
d="M221 459q-10 28 -10 42q0 12 -8.5 37.5t-9.5 38.5q0 10 -8 26q-13 46 -18 56q-15 27 -55 69q-9 11 -23 14q-21 9 -43 -3q-17 -11 -13 -29q9 -29 22 -47q11 -16 29 -50q18 -28 20 -49q12 -40 25 -100q5 -22 7 -40q1 -7 3 -21.5t4 -21.5q0 -4 -0.5 -12t-0.5 -13.5t1 -10.5
q1 -70 -8 -142l-6 -42q-10 -40 -23 -76q-1 -4 -15 -43q-10 -35 -33 -70l-5 -7.5t-6 -8.5t-7 -8q-12 -27 10 -46q8 -8 30 -14q43 -7 56 34l10.5 24.5t12.5 27.5q6 22 16 38q22 50 27 85q1 7 7.5 41.5t11.5 51.5q5 24 6 129.5t-6 139.5z" />
    <glyph glyph-name="asterisk" unicode="*" horiz-adv-x="380" 
d="M129 621q-1 1 -4.5 2.5t-4.5 2.5q-9 8 -26 25q-5 5 -13 13.5t-12 12.5q-14 12 -28 3q-13 -8 -9 -22q4 -32 22 -45l24 -21q17 -17 25 -26q14 -14 -2 -23q-22 -18 -33 -18q-2 0 -6 -2q-14 -7 -9 -19q5 -17 20 -14q6 1 16 4t15 4q9 3 19 3q6 1 8.5 -2.5t0.5 -9.5
q-4 -11 -9 -19q-7 -15 -5 -33q0 -21 21 -16q11 3 16 11q4 6 8 10q11 11 17 -2q1 -2 2.5 -6t2.5 -6q7 -12 19 -9q12 16 14 34q0 3 2 11t10 4t22 -12q15 -9 29 -14q14 -4 28 5q10 5 7 16q-3 15 -14 23q-17 11 -31 22q-2 2 -7.5 6t-8 6t-6 6t-4.5 9q2 12 18 17q33 14 58 19
q13 2 22 9q10 8 8 18.5t-13 14.5q-12 5 -23 2t-40 -7q-4 -1 -13 -1q-9 2 -5 10q4 10 11 20q12 18 15 40q2 11 -10 13q-23 5 -35 -14q-15 -21 -31 -46q-3 -4 -11 -10q-5 -5 -9 2q-2 4 -6 14q-2 7 -4.5 21t-3.5 20q-6 28 -14 38q-13 16 -27 1q-1 -1 -3 -5l-3 -6q-5 -18 -2 -30
q6 -18 9 -28q6 -17 -4 -26zM77 514h2l1 -1l-2 -1q-1 1 -1 2zM77 514l1 -2q1 0 2 1q0 1 -1 1h-2z" />
    <glyph glyph-name="plus" unicode="+" horiz-adv-x="540" 
d="M514 316q10 -6 10 -19q0 -7 -6 -12q-13 -11 -26 -11q-68 0 -81 1q-11 1 -120 3q0 -32 2 -44q2 -6 4 -20q0 -2 -4 -10q7 -8 7 -29q1 -22 1 -67v-10q-2 -6 -2 -11q0 -11 -3 -16.5t-8 -8.5l-6 -3h-9q-5 0 -7 1q-18 7 -18 28q0 11 2 29q0 4 0.5 12t0.5 11l-6 78v60
q-40 0 -54 -2q-6 -2 -20 -4q-2 0 -10 4q-8 -7 -29 -7q-22 -1 -67 -1h-10q-6 2 -11 2q-11 0 -16.5 3t-8.5 9l-3 5v9q0 5 1 7q7 18 28 18q11 0 29 -2q4 0 12 -0.5t11 -0.5q12 0 25 1t28.5 2.5t24.5 2.5h70q2 137 1 146q-3 26 -3 53q-1 18 10 34q6 10 19 10q8 0 12 -6
q11 -13 11 -26q0 -67 -1 -81q-3 -39 -3 -130q129 -2 136 -1q26 3 53 3q18 1 34 -10z" />
    <glyph glyph-name="comma" unicode="," horiz-adv-x="170" 
d="M68 -32q29 -5 40 12q6 6 8 17q4 17 8 47v6q-2 13 -14 24t-26 12q-10 2 -28 -2q-18 -7 -20.5 -24.5t12.5 -29.5q1 -1 3.5 -2.5t3.5 -3.5q6 -6 7 -10q3 -9 3 -18q0 -2 3 -28z" />
    <glyph glyph-name="hyphen" unicode="-" horiz-adv-x="400" 
d="M161 266q8 -4 10 -4q14 2 20 4q43 7 70 5q13 -1 81 -1q13 0 26 11q6 5 6 12q0 13 -10 19q-16 11 -34 10q-28 0 -53 -3q-8 -1 -52 -3t-50 -2q-9 -1 -24.5 -2.5t-28.5 -2.5t-25 -1q-3 0 -11 0.5t-12 0.5q-18 2 -29 2q-21 0 -28 -18q-1 -2 -1 -7v-9l3 -5q3 -6 8.5 -9
t16.5 -3q5 0 11 -2h10q45 0 67 1q21 0 29 7z" />
    <glyph glyph-name="period" unicode="." horiz-adv-x="180" 
d="M137 60q0 1 -2 8.5t-4 10.5q-19 29 -53 31q-21 0 -31 -11q-13 -12 -11.5 -36t24.5 -33q23 -12 52 -4q22 6 25 34z" />
    <glyph glyph-name="slash" unicode="/" horiz-adv-x="370" 
d="M37 53q0 9 6 25q22 52 25 62q4 16 11 37q16 42 18 50q4 16 26.5 74.5t43.5 112t21 54.5q5 14 15 37t14 35q1 6 5 15.5t5 14.5q23 69 27 82q2 5 8.5 31t15.5 38q1 1 2.5 3.5t3.5 3.5q15 13 30.5 7.5t20.5 -25.5q3 -9 -1 -27q-8 -30 -11 -42q-3 -9 -13 -39.5t-33 -95
t-61 -163.5q-9 -21 -39.5 -132t-40.5 -151q-8 -25 -25 -42q-11 -10 -35 -13q-18 -1 -28.5 11t-10.5 37z" />
    <glyph glyph-name="zero" unicode="0" 
d="M121 759q-23 -2 -41 -9t-29 -19.5t-18.5 -24t-11.5 -30t-5.5 -28.5t-2.5 -28.5t-1 -21.5q-8 -100 -8 -253q-1 -80 13 -159.5t26 -105.5q17 -41 56.5 -66.5t83.5 -4.5q16 7 27 21.5t16.5 25.5t10 38.5t5.5 37.5t4 45q1 15 5 54t5.5 68.5t0.5 55.5q0 11 -1.5 54t-2 59
t-2.5 52.5t-5.5 56.5t-8.5 48t-12.5 48.5t-17.5 38.5q-17 26 -35.5 37.5t-50.5 9.5zM127 665q22 2 38 -60.5t21 -164.5t-6 -232q-11 -128 -44 -129h-2q-8 0 -20 19t-25 77t-14 142q-1 97 2 166.5t8 103.5t14 52.5t14 21.5t14 4z" />
    <glyph glyph-name="one" unicode="1" horiz-adv-x="215" 
d="M115 656q11 -241 6 -421q-1 -44 4 -167q2 -65 29 -71q19 -3 30 24q10 27 12.5 121t-2 217t-8.5 201.5t-8 139.5q-3 42 -32.5 52.5t-57.5 -13.5q-7 -6 -16 -19t-15 -24t-15.5 -29.5t-13.5 -25.5q-20 -37 -20 -85q0 -42 24 -37q4 0 8 2q19 8 43 69.5t32 65.5z" />
    <glyph glyph-name="two" unicode="2" horiz-adv-x="344" 
d="M134 98q11 39 38 131.5t42 144.5q3 10 15.5 45t16.5 54q3 15 10.5 45t12 49t7.5 46t2 50q-3 44 -33 74t-76 23q-34 -4 -75.5 -43t-52.5 -75q-36 -104 11 -121q22 -8 29.5 3.5t8.5 34.5t5.5 47t28 42t66.5 18q9 0 13 -7t3 -21t-2.5 -23.5t-5.5 -24.5l-4 -16
q-24 -102 -57.5 -210t-55 -164.5t-25.5 -63.5q-5 -9 -18.5 -23.5t-21 -24t-13 -26t4.5 -28.5q9 -18 25 -21.5t45.5 1t39.5 4.5q20 0 75.5 -11t83.5 -4q48 12 54 32q5 16 1 26t-14 13.5t-24 5t-29 0.5t-29 0q-5 0 -24 1t-29 1.5t-23.5 2.5t-19.5 5t-6 8z" />
    <glyph glyph-name="three" unicode="3" horiz-adv-x="314" 
d="M140 774q-105 -15 -138 -139q-1 -3 -3.5 -9t-4.5 -11t-2 -9q-1 -14 6.5 -29.5t17.5 -21.5q16 -6 25 -6t16 11.5t10.5 22t7.5 26t7 21.5q12 23 31.5 42t37.5 19q21 0 35.5 -11.5t19.5 -26.5q13 -51 -19 -139q-7 -21 -26 -43.5t-37 -34.5q-5 -3 -19.5 -10t-25 -13.5
t-14.5 -14.5q-12 -24 1 -45.5t32 -28.5q16 -6 55.5 2t46.5 -1q16 -11 21 -65q6 -42 3 -81q-8 -77 -33 -88q-16 -6 -27 -8t-19.5 1.5t-13.5 7.5t-15.5 14t-18.5 17q-16 16 -37 6t-25 -43q-2 -25 13 -37q21 -20 57.5 -32.5t69.5 -10.5q54 5 87 36q31 34 40 92q10 67 1 125.5
t-33 101.5q-2 5 -22 23.5t-20 29.5q0 12 19 38.5t22 38.5q2 9 7 27t8 32.5t4 27.5q5 55 -3 88.5t-33 58.5q-54 57 -112 49z" />
    <glyph glyph-name="four" unicode="4" horiz-adv-x="290" 
d="M151 496q5 -80 6.5 -224t2.5 -181q0 -6 0.5 -22.5t1 -22.5t2.5 -17t6 -15.5t12 -8.5t19 -5q23 -1 32.5 5.5t9.5 21v36.5q0 35 -5.5 140.5t-3.5 130.5t3 79t4 81q1 9 4.5 39t4.5 46.5t-1.5 40t-9.5 38.5q-10 22 -28 23.5t-33 -16.5q-6 -7 -7.5 -39.5t-11.5 -45.5
q-9 -13 -35.5 -9.5t-34.5 21.5q-7 16 -7 58q0 15 5.5 37t10 39t5.5 32.5t-8.5 22.5t-31.5 3q-11 -2 -20 -6t-15 -13t-9.5 -15t-6 -21.5t-3.5 -21.5t-2.5 -26t-2.5 -25q-8 -92 35 -121q14 -9 28 -15t20.5 -8.5t29.5 -7.5t34 -8z" />
    <glyph glyph-name="five" unicode="5" horiz-adv-x="330" 
d="M181 770q-55 -9 -91 -4.5t-57 -1.5t-27 -34q-3 -9 -1 -35t2 -36q-2 -13 -0.5 -51t1.5 -46q0 -32 20.5 -42.5t48 -4.5t55.5 6.5t43 -10.5q1 -1 15 -12.5t18 -18.5t14 -27t16.5 -52.5t11.5 -79.5q10 -89 -17 -164q-6 -16 -29.5 -38.5t-56.5 -22.5q-10 0 -18 2t-14 6.5
t-8.5 7t-6.5 8.5l-5 6q-38 46 -64 20q-22 -22 -12 -64q3 -14 10 -26q27 -44 97.5 -49t109.5 28q53 43 71 113q25 87 9 192q-7 55 -11.5 81t-16 68t-31 66t-47.5 35q-17 6 -47 3t-46.5 -6t-26.5 5q-5 8 -6.5 41.5t2.5 41.5q5 8 19.5 8t47 0.5t67.5 10.5q11 3 23.5 12t16.5 17
q9 18 3.5 29t-20 14t-31.5 4.5t-31 -0.5z" />
    <glyph glyph-name="six" unicode="6" horiz-adv-x="350" 
d="M259 772q-48 -5 -87 -35t-64 -72.5t-43.5 -98.5t-27.5 -109t-13 -109q-1 -14 -5 -48t-5 -47q-12 -203 140 -241q74 -18 120 28t41 121q-2 44 -39 84q-1 1 -8 9t-8.5 9.5t-7.5 8t-8.5 8t-8.5 6.5t-10 6.5t-10.5 4.5t-13 5t-13.5 3q-17 3 -32.5 -1t-25 -11.5t-16.5 -15.5
t-11 -12.5t-5 -3.5q-3 3 -3 16.5t1.5 30t1.5 17.5q21 258 100 337q38 38 75 38q9 0 20 -0.5t17 -1t13.5 0t9.5 2t6 5.5t2 11t-2 17q-3 19 -31 29.5t-49 8.5zM178 72q-25 0 -43.5 23.5t-18.5 53.5q0 31 18.5 58t43.5 27q24 0 47 -35t23 -67q0 -28 -21 -44t-49 -16z" />
    <glyph glyph-name="seven" unicode="7" horiz-adv-x="304" 
d="M176 700q21 -58 -13 -100q-4 -8 -55 -2.5t-60 1.5q-5 -2 -8 -6.5t-4 -8t-1.5 -10.5t-1.5 -11q0 -12 -0.5 -18t7 -10t12.5 -5t15.5 -2t15.5 -2q3 -1 18 -2.5t25.5 -4.5t10.5 -9q3 -46 -40 -198q-3 -8 -33.5 -130.5t-32.5 -127.5q-11 -33 2 -43t43 -4q19 3 34 27.5t21.5 48
t14 59t9.5 41.5l67 290q6 21 15.5 29.5t16.5 7.5t12.5 0t6.5 9q1 4 3.5 13.5t3 13.5t-0.5 11q-1 3 -12 11.5t-10 16.5q11 83 28 159q7 34 -58.5 41t-135.5 -8.5t-73 -36.5q-4 -27 27.5 -35t68.5 -3.5t62 -1.5z" />
    <glyph glyph-name="eight" unicode="8" horiz-adv-x="260" 
d="M270 587q-3 -10 7 -9q0 1 -0.5 3t-0.5 4t-1 2h-5zM115 761q-72 -7 -89 -61q-13 -39 -16.5 -62.5t6.5 -71t40 -111.5q15 -29 13 -73q-3 -43 -31 -129t-29 -138q-1 -62 52 -94.5t118 -14.5q16 5 33.5 21t21.5 31q8 28 10 56t-4.5 63.5t-10 49t-14.5 53.5q-14 54 -20 75
q-1 2 -5.5 11.5t-4.5 15.5q-1 24 16 60t19 43q11 34 21 98q9 56 -10.5 99.5t-57.5 65.5q-29 17 -58 13zM108 259q4 8 10 22t10 23l5 10q19 -25 29 -83t11 -101q0 -19 -16.5 -41t-35.5 -18q-43 14 -44 54q-1 67 31 134zM136 460q-22 15 -51.5 85t-7.5 110q12 23 43.5 26
t51.5 -28q11 -16 6.5 -47t-12.5 -56t-18.5 -53t-11.5 -37z" />
    <glyph glyph-name="nine" unicode="9" 
d="M174 535q0 -167 -5 -349q-2 -62 -3 -72q0 -8 -4.5 -29.5t-3.5 -31.5q2 -31 18 -42.5t35 1t31 44.5q9 26 14.5 324t-6.5 336q-10 24 -41 34.5t-67 8.5q-76 -3 -112.5 -62.5t-11.5 -137.5q10 -32 42 -50t66 -12t48 38zM139 570q-25 -9 -46.5 2t-21.5 44q0 23 22.5 51.5
t45.5 28.5q24 0 37.5 -14.5t13.5 -37.5t-13.5 -44.5t-37.5 -29.5z" />
    <glyph glyph-name="colon" unicode=":" horiz-adv-x="200" 
d="M96 407q3 1 8.5 2t10 2t8.5 2q25 10 31 35t-12 42q-29 28 -69 23q-31 -4 -41 -36q-8 -30 13 -51q20 -17 51 -19zM82 14q27 0 39 7q29 15 24 45q-1 15 -21 29q-30 27 -72 7q-18 -10 -21.5 -33t10.5 -37q19 -21 41 -18z" />
    <glyph glyph-name="semicolon" unicode=";" horiz-adv-x="200" 
d="M93 -52q29 -7 43 12q8 12 9 18q2 8 3.5 17t3 19t2.5 16q2 4 0 6q-3 15 -16.5 27.5t-27.5 13.5q-18 0 -30 -4q-20 -8 -22.5 -26.5t13.5 -32.5q5 -3 7 -5q5 -5 8 -11q1 -3 2.5 -10.5t2.5 -10.5q0 -5 0.5 -14.5t1.5 -14.5zM151 294q0 32 -30 39q-24 6 -46 -12
q-17 -17 -13.5 -36t24.5 -27q27 -9 53 11q14 9 12 25z" />
    <glyph glyph-name="question" unicode="?" horiz-adv-x="280" 
d="M107 174q-1 0 -1 2l1 -1v-7q7 -14 24 -19.5t31 1.5q1 0 3 2q19 17 20 34v19q-4 63 -7 98q-5 61 4 108q1 10 9 28q4 9 8.5 19.5t10 23.5t8.5 20q1 3 2.5 9t2.5 9q2 5 4 19q10 30 8 67q-2 53 -41 75q-2 1 -7 4t-7 5q-19 8 -47 7t-58.5 -20.5t-39.5 -50.5q-15 -51 -16 -77
q0 -13 11 -19q20 -11 41 0.5t19 30.5q0 54 27 74q16 11 29 8q12 -2 18 -19q1 -4 1 -13q0 -29 -8 -63q-2 -10 -12.5 -36t-21.5 -51.5t-12 -28.5q-12 -38 -9 -78q7 -87 0 -157q-2 -14 5 -23zM144 83q-20 0 -29 -6q-15 -10 -17.5 -29t5.5 -29l9 -9q11 -10 30 -10q29 1 40 30
q7 17 -4.5 34.5t-33.5 18.5zM107 174v1l-1 1z" />
    <glyph glyph-name="at" unicode="@" horiz-adv-x="600" 
d="M131 605q-23 1 -34 -13q-30 -36 -43 -55q-5 -7 -14 -27q-6 -12 7 -25q6 -5 19 2q6 2 9 6q9 9 25 29q1 1 4.5 5t5.5 6q12 12 24 0q3 -3 7.5 -9.5t5.5 -7.5q20 -27 39 -39q13 -7 29 -4q11 3 16 12.5t1 20.5q-3 9 -10 16q-30 35 -47 54q-10 11 -26 22q-4 2 -18 7zM477 595
q-26 -4 -35 -14q-30 -36 -44 -55q-7 -10 -7 -24q2 -11 12 -14q20 -6 35 7l7.5 7.5t8 8.5t7.5 7q12 12 24 2q1 -1 20 -17q14 -14 33 -17q22 -2 33 18q3 3 1.5 7.5t-2 6.5t-3 6t-3.5 5q-2 3 -5 5q-24 28 -37 40q-23 21 -45 21zM346 86q-8 3 -10 3q-4 1 -10 2t-7 1q-13 4 -8 17
q1 1 3.5 5.5t3.5 7.5q6 13 -5 26q-20 23 -48 23q-27 0 -41 -25q-12 -22 2 -42q8 -10 1 -19q-6 -7 -4 -18q0 -7 3.5 -10.5t9.5 -2.5q9 0 16 3q16 6 34 3q4 0 12 -2q33 -2 48 28zM504 96q9 14 0 26q-7 10 6 14q1 0 4 1t4 2q6 1 6 8q-1 6 -7 9q-6 2 -10 2q-48 4 -73 6
q-14 0 -27 -6q-16 -10 -6 -25q4 -6 7 -8q3 -3 9.5 -10t10.5 -11q9 3 32 -5q9 -3 19 -3h25zM455 282q-15 0 -31 -11q-9 -9 -9 -14q-3 -21 12 -32q27 -15 49 -3q20 10 17 31q-3 31 -38 29zM73 229q17 0 30 12q5 5 6 16t-4 18q-19 25 -48 13q-9 -3 -15 -12.5t-5 -19.5
q2 -21 24 -25q2 -1 6 -1.5t6 -0.5zM95 95q18 0 35 5t20 6q18 3 21.5 7t-3.5 18q-10 15 -33 22q-11 4 -44 6q-14 1 -24 -11q-3 -7 -1 -12q2 -4 4.5 -6.5t3 -3.5t1 -3.5t0.5 -7.5q3 -2 5 -4t6 -6.5t9 -9.5z" />
    <glyph glyph-name="A" unicode="A" horiz-adv-x="301" 
d="M163 727q-30 21 -50 -50q-6 -21 -16 -75q-1 -7 -17 -74.5t-30.5 -133.5t-16.5 -83q-3 -23 -14 -86.5t-13 -94.5q0 -7 -2 -24.5t-2.5 -27t0 -24t4 -25.5t9.5 -21q14 -17 47 -3q6 0 10 23.5t6.5 67t4.5 57.5q10 87 27 144q5 1 28.5 1t32.5 3q7 -19 12.5 -45.5t12.5 -63.5
t12 -62q3 -11 6.5 -30.5t5.5 -30.5t6 -25.5t9.5 -21t13 -11.5t18.5 -2.5t25 11.5q9 27 -25 161q-22 91 -48.5 264.5t-30.5 197.5q-1 4 -2.5 13.5t-2 14.5t-2.5 14t-3.5 14.5t-4 11.5t-5 10t-5.5 6zM134 454q1 3 1.5 7t2 9t2.5 8t2 3q6 -3 10 -40.5t4 -61.5q-6 -4 -11 -5
t-8 -0.5t-8 1.5t-10 1q11 61 15 78z" />
    <glyph glyph-name="B" unicode="B" horiz-adv-x="258" 
d="M173 486q45 31 62 82t-5 106q-10 22 -42 52q-44 37 -109 29q-33 -5 -51.5 -16t-21.5 -39q-3 -29 2 -90t5 -80q1 -34 2.5 -86t1.5 -73q1 -25 2 -80t3 -97.5t5 -76.5q1 -44 5 -66t19 -33q18 -13 53.5 -17.5t60.5 5.5q36 15 52.5 55t25.5 105q10 94 -22 208q-12 50 -48 112z
M92 456q58 -7 79 -116q19 -111 0 -218q-4 -20 -23.5 -43t-37.5 -18q-5 2 -8.5 9t-4.5 16.5t-1.5 21t-0.5 22.5v21q-1 31 -3.5 136t-4.5 163q0 4 5 6zM87 532q0 22 -4.5 80.5t-3.5 87.5q36 7 64 -11.5t33 -49.5q9 -46 -17.5 -78t-71.5 -29z" />
    <glyph glyph-name="C" unicode="C" horiz-adv-x="252" 
d="M106 733q-30 -5 -55.5 -32.5t-34.5 -57.5q-11 -37 -12.5 -118.5t1.5 -148.5q0 -27 1.5 -59.5t3.5 -67.5t3 -50q9 -120 32 -157q28 -48 89 -49t92 45q1 2 5 7.5t7 10t5.5 11t1.5 11.5q0 7 -10.5 18.5t-22.5 7.5q-23 -7 -27 -28t-39 -27q-14 -3 -25 9.5t-17 37.5t-8.5 40.5
t-4.5 38.5q-15 125 -9 353q2 88 16 113q12 22 35 15q6 -2 10 -3.5t8 -4.5t6 -4t5 -7l4 -8t5 -11.5t6 -13.5q6 -14 27 -5q27 11 22 41q0 4 -2 9q-16 50 -40 64q-13 9 -40 15.5t-38 4.5z" />
    <glyph glyph-name="D" unicode="D" horiz-adv-x="303" 
d="M50 0q67 0 116.5 40t75.5 106.5t37.5 138t10.5 147.5q-3 127 -28 195.5t-105 108.5q-51 15 -90.5 9t-42.5 -28q-21 0 -22 -350.5t17 -361.5q15 -5 31 -5zM86 85q-7 0 -10.5 147.5t0.5 297.5t17 156q62 0 95 -74q45 -97 30 -258.5t-75 -229.5q-31 -33 -57 -39z" />
    <glyph glyph-name="E" unicode="E" horiz-adv-x="251" 
d="M80 651q17 12 62 14t58 24q11 20 -2.5 32.5t-40.5 8.5q-7 -1 -36.5 -4.5t-51 -8t-31.5 -9.5q-33 -17 -27 -89q9 -94 11 -131q3 -66 13.5 -234.5t13.5 -203.5q0 -51 31 -51q67 5 133 12q10 0 17 20.5t-3 26.5q-40 20 -103 3q-7 49 -12.5 143.5t-9.5 132.5q1 0 6 2t6.5 2.5
l6 2t5.5 2.5t4.5 3t4.5 3.5t3 4t3 5.5t1 6q2 13 -5 20.5t-16 10.5t-26 6q1 41 -7 123.5t-8 122.5z" />
    <glyph glyph-name="F" unicode="F" horiz-adv-x="230" 
d="M226 712q-2 14 -14 20t-33.5 5t-37.5 -3.5t-38 -7.5q-6 -1 -9 -2q-5 -3 -27.5 -2t-29.5 1q-12 -3 -18 -11t-7 -21.5t0.5 -25.5t4 -32.5t3.5 -33.5q5 -84 12 -220q15 -283 27 -334q10 -43 31 -44q11 0 29 11q6 4 9 13.5t3.5 24.5t-0.5 28.5t-3 32.5t-2 30q-2 44 -14 162.5
t-11 177.5q2 1 13.5 3t18 5t12 12t4.5 23q-8 22 -56 22q-1 10 -4 37.5t-3 37t1 38.5q8 1 29 3t38.5 4t35.5 7t28 15t8 24z" />
    <glyph glyph-name="G" unicode="G" horiz-adv-x="255" 
d="M207 595q-7 1 -9 -2q-1 -4 1.5 -5t7.5 -1v8zM169 329q17 0 3 -156q-7 -74 -26 -97q-14 -15 -27 -11t-16 17q-25 75 -27 209q0 21 1 66.5t0 72.5q-5 97 0 144q11 103 44 105q16 1 32.5 -24t25.5 -26q11 -1 18.5 9t9.5 19q6 33 -26 65t-65 24q-55 -14 -79 -56.5
t-26.5 -119.5t0.5 -194q1 -55 2 -85q0 -6 1.5 -32.5t2 -36t2.5 -34.5t3.5 -37t4.5 -32.5t6.5 -32.5t8 -26t10.5 -22.5t13 -14.5q6 -12 34 -17t46 1q21 6 39 28.5t27 48.5q9 27 14 65.5t6 74.5t1 74v65q3 18 -51 27q-56 9 -66 -4q-1 -1 -1 -3q-2 -5 -3 -17.5t-2 -15.5
q0 -9 30 -11.5t30 -9.5z" />
    <glyph glyph-name="H" unicode="H" horiz-adv-x="250" 
d="M194 742q-5 0 -9 -1t-6.5 -4.5t-4 -5t-3.5 -7.5t-3 -8q-8 -21 -3 -148t-1 -130q-2 -2 -41.5 -4.5t-40.5 2.5q-5 5 -4 147t-14 146q-19 7 -30.5 -3t-14.5 -26q-1 -6 -1 -100q0 -67 -0.5 -198t-0.5 -199q0 -17 -1 -50.5t-1.5 -56t1 -46.5t6.5 -36.5t14 -12.5q3 0 10.5 -1
t11 -1t8.5 1.5t7 6.5q12 22 7 108q-4 56 -3 150.5t7 94.5q19 4 45 6t35 -4q9 -137 8 -283q0 -52 9 -70q15 -11 35 -5q19 10 19 38q-1 315 -17 690q0 10 -24 10z" />
    <glyph glyph-name="I" unicode="I" horiz-adv-x="130" 
d="M93 30q-4 76 3.5 233t4.5 227q-1 19 0 59t0 74t-6 62q-3 21 -11.5 34t-22.5 6q-11 -4 -17.5 -12t-8.5 -20.5t-2 -23t0.5 -29.5t0.5 -30q0 -81 -4 -265.5t-5 -233.5q0 -20 -0.5 -38t4.5 -35.5t15 -27.5q13 -16 37 -4h1q2 1 3 1t2.5 2t2.5 4t2 6.5t1 10.5z" />
    <glyph glyph-name="J" unicode="J" horiz-adv-x="232" 
d="M204 736q-27 3 -31 0q-12 0 -17 -58.5t-8 -166t-6 -146.5q0 -7 -1 -48.5t-2 -75.5t-4 -74.5t-9.5 -64.5t-15.5 -25q-16 -3 -29.5 19t-13.5 40q0 33 -27 40q-23 5 -31 -13q-2 -3 -2 -7q-3 -23 4.5 -50.5t15.5 -41.5q31 -51 70 -56q27 -4 46.5 7.5t30 29t16.5 47.5t8 50
t3 51q2 55 6 200.5t7 215.5q0 7 1.5 22t2 24.5t1 23t0 22.5t-2 18t-4.5 13t-8 4z" />
    <glyph glyph-name="K" unicode="K" 
d="M116 443q18 32 32.5 60t22.5 44.5t23 49.5t26 56q29 53 22 72q-7 13 -23 10.5t-26 -10.5q-20 -17 -49.5 -84t-49.5 -82q-1 18 -2.5 78t-4.5 88q-19 14 -34.5 5t-20.5 -28q-4 -13 -2 -46q2 -91 -11 -319t-9 -330q0 -10 16.5 -13.5t33 1.5t16.5 16q0 32 -1 91t-1 90t3 76
t10 85q62 -151 100 -288q1 -3 2.5 -8t2 -7.5t2 -7t3.5 -7t4.5 -6t6.5 -6.5t9 -6q10 -8 28 -3t22 20q8 32 -28 122q-51 137 -68.5 179.5t-54.5 107.5z" />
    <glyph glyph-name="L" unicode="L" horiz-adv-x="240" 
d="M82 87q-6 88 0.5 272.5t-0.5 275.5q-5 93 -29 103q-10 5 -25 -3q-12 -2 -14.5 -26t1 -71.5t3.5 -62.5q0 -234 -5 -303q0 -10 -2 -48.5t-2.5 -69t0.5 -65t8.5 -54.5t20.5 -20q5 0 34.5 -3t66 -5.5t61.5 -1.5q14 0 21 13.5t3 35.5q-2 7 -18 11t-36.5 5.5l-41 3t-34 5
t-12.5 8.5z" />
    <glyph glyph-name="M" unicode="M" horiz-adv-x="294" 
d="M69 746q-18 3 -28.5 0.5t-14 -12.5t-4.5 -18.5t0 -26.5t1 -26q0 -14 -2 -166.5t-7 -235.5q-1 -19 0.5 -54t1.5 -46q0 -16 -1 -50t0.5 -56t7.5 -40q8 -18 31 -8q6 3 10 9t5.5 15.5t2 17.5t1 21t0.5 19q1 27 1 89.5t1 98.5q5 105 5 180q0 16 1 46.5t1 54.5q5 -4 11 -19
q6 -18 22 -48t30 -33q4 -2 7.5 -2t9 7t17.5 25q6 10 11.5 20t8.5 16t6 11.5t5 8.5t3.5 6t3 4t3 2.5t3.5 2.5q-11 -178 -11 -461q0 -8 -1.5 -29t-1 -35t3.5 -20q4 -7 13.5 -11t18.5 -1q27 5 27 31q2 354 10 613q0 8 2.5 30t2 34.5t-4.5 15.5q-6 9 -18.5 11t-22.5 -4
q-2 -1 -14 -20q-3 -6 -21.5 -47t-35.5 -74.5t-22 -33.5q-4 0 -8 8t-9 23t-7 19q-5 16 -11 31q-1 2 -9.5 33.5t-17.5 52.5t-17 21z" />
    <glyph glyph-name="N" unicode="N" 
d="M98 723q-12 18 -25.5 23.5t-24 2t-15.5 -12.5q-10 -39 -10 -155q0 -47 -5 -191t-3 -210v-80q0 -7 -1 -25t-1 -27t1.5 -21t7.5 -17t15 -6q16 -1 26.5 9t14 34t4 39t0.5 47v18q0 11 1.5 169.5t1.5 166.5q6 -14 9 -32t4 -22q1 -3 14 -61.5t26.5 -124.5t13.5 -79q0 -10 3 -34
t7 -49.5t5 -30.5q6 -48 32 -54q17 -3 22 14q13 73 15 229t4 196q3 36 0 124.5t-2 116.5q0 18 -1 27t-8 18.5t-22 6.5q-19 7 -28.5 -15.5t-8.5 -54.5l10 -330q-7 50 -39.5 207.5t-42.5 183.5z" />
    <glyph glyph-name="O" unicode="O" horiz-adv-x="247" 
d="M226 435q0 25 -1 79t-1 76q0 16 -7 53.5t-11 43.5q-41 60 -122 46q-32 -6 -55 -46q-19 -34 -19 -156v-125q-2 -39 -3 -123t-4 -122q-2 -21 3 -55q2 -23 22 -55q33 -56 99 -49q15 1 33 15t28 29q21 33 25 119q1 28 4.5 73.5t4.5 59.5q6 64 4 137zM150 654q11 -25 15 -62
q3 -34 -0.5 -188t-12.5 -202q-2 -10 -2.5 -47t-6.5 -59.5t-24 -22.5q-19 0 -31.5 7.5t-18 18.5t-7 29.5t-1 33.5t2 39t1.5 39q0 9 2 134.5t-1 139.5q0 8 -0.5 23.5t-1 23t-0.5 21t1 20.5t2.5 18t4.5 17t7 13t10 11.5t14 7.5q13 6 27.5 0t19.5 -15z" />
    <glyph glyph-name="P" unicode="P" 
d="M95 500q0 5 25 7t56 7.5t43 17.5q45 47 39 121q-6 67 -27 82q-32 23 -116 30.5t-96 -3.5q-5 -1 -8 -11t-3.5 -26.5t-0.5 -31t0.5 -34.5t0.5 -28t1 -130.5t1 -249t-2 -207.5q1 -16 2 -22.5t6.5 -15t14.5 -10.5q17 -6 28 0.5t14 21t4.5 33.5t0.5 38.5t1 35.5
q4 50 5.5 147.5t3 162.5t7.5 65zM76 579q-12 115 -4 121q-4 10 44 10q66 0 82 -21q11 -14 9 -52t-12 -49t-39.5 -16t-54.5 -2.5t-25 9.5z" />
    <glyph glyph-name="Q" unicode="Q" horiz-adv-x="417" 
d="M241 142q-14 -6 -17.5 -3t-10.5 12.5t-16 12.5q-14 4 -20 0q-9 -7 -3 -28t13.5 -43t4.5 -22q-11 0 -20.5 2.5t-17 9.5t-13.5 12.5t-11 18t-8 19.5t-6.5 24t-5 23.5t-4.5 25.5t-4 24q-27 173 -20 284q6 87 29 122q15 23 40 29.5t47 -11.5q27 -23 42 -79.5t15 -112.5
q0 -29 1.5 -85t2 -89.5t-3.5 -75t-14 -70.5zM246 708q-39 31 -92 31q-34 0 -72 -26q-39 -28 -59.5 -88t-21.5 -130.5t3 -125.5t12 -100q4 -20 10 -58.5t9.5 -55.5t12 -40.5t20.5 -41.5q55 -77 141 -59q5 1 16 6t16 6q52 -43 107 -7q27 16 46 52q11 22 -1 49t-43 26
q-15 -1 -16 -18t-1 -35t-15 -20q-20 -3 -32 12q6 12 11 28t7.5 27.5t7 34t6.5 33.5q9 37 11 92q6 125 -9 230q-8 54 -30.5 107t-43.5 71z" />
    <glyph glyph-name="R" unicode="R" horiz-adv-x="305" 
d="M192 443q4 3 16 11t22 16.5t17 18.5q33 32 39.5 83.5t-21.5 101.5q-21 34 -78 50.5t-104.5 16t-54.5 -10.5q-6 1 -10 -7.5t-6 -26t-2.5 -38.5t0.5 -48.5t1.5 -51t1.5 -51t1 -44.5q0 -57 -5.5 -207.5t-3.5 -233.5q15 -31 41 -19q32 22 35 85q0 41 3 158t2 177q23 3 36 -6
t27 -29q45 -60 45 -188q3 -47 4 -83.5t0.5 -50t0.5 -23t4 -17.5q14 -25 32 -22t28 22q2 2 2 78q2 142 -11 213q-2 13 -6.5 26t-8.5 22t-11.5 22.5t-11 18.5t-13.5 20t-11 17zM82 519q-3 35 -5 88t1 61q2 5 27.5 3t61 -14t44.5 -25q11 -15 6 -51t-16 -48q-10 -11 -39.5 -17
t-54.5 -5t-25 8z" />
    <glyph glyph-name="S" unicode="S" horiz-adv-x="220" 
d="M4 114q-6 -15 2 -40q6 -16 27 -37t34 -27q36 -17 70.5 -5.5t48.5 41.5q14 28 9 75q-2 30 -28 223q-4 35 -12 72t-18.5 77.5t-14.5 59.5q-4 16 -7.5 37t-5.5 50.5t8 33.5q9 10 15.5 7.5t7.5 -9t10.5 -17t24.5 -15.5q5 -2 29 11q8 10 -2 39q-25 73 -102 63
q-47 -7 -65 -52.5t-1 -97.5q11 -34 39.5 -182.5t35.5 -199.5q1 -8 4.5 -28.5t5 -32t2.5 -28t-1 -30.5t-7 -26q-6 -6 -11 -2t-11.5 14t-12 21t-13.5 19.5t-15 8.5q-19 0 -46 -23z" />
    <glyph glyph-name="T" unicode="T" horiz-adv-x="271" 
d="M260 663q12 0 10 25q-3 36 -32 46q-3 0 -6 1q-4 0 -26 1.5t-39 2t-43 1t-45.5 -2t-38 -6.5t-29 -12t-11.5 -20q-1 -13 11.5 -25.5t26.5 -16.5q8 -2 25.5 1t29 3t11.5 -8q-13 -203 -13 -417q0 -8 1.5 -39.5t0.5 -49.5q-5 -39 -0.5 -85.5t27.5 -56.5q13 -4 21.5 -5t14 7.5
t8 16.5t3 22.5t0 25.5t-0.5 25.5v22.5q4 71 2.5 281.5t11.5 257.5q0 7 15.5 6t33.5 -4t31 2z" />
    <glyph glyph-name="U" unicode="U" horiz-adv-x="269" 
d="M17 743q-6 -10 -6 -27q3 -39 -0.5 -108.5t-2.5 -102.5q1 -24 -2 -140q-6 -122 0 -187q2 -49 8 -68q8 -27 13 -34q23 -57 77 -74.5t98 27.5q27 31 42 108q7 39 10.5 95.5t4 97.5t-0.5 115.5t-1 99.5q0 137 -7 184q-3 9 -27.5 17t-33.5 -4q-6 -11 -9.5 -55.5t-4 -107
t-0.5 -117.5t1 -109.5t1 -60.5v-24v-46.5t-1 -40.5t-3.5 -38t-7 -28.5t-11.5 -24t-17 -12.5q-24 -8 -38 19q-18 33 -22 81t0.5 126t4.5 101q0 209 -10 329q0 17 -23.5 19.5t-31.5 -10.5z" />
    <glyph glyph-name="V" unicode="V" horiz-adv-x="250" 
d="M237 719q-9 21 -42 15q-14 -5 -21.5 -45.5t-8.5 -77.5q-9 -101 -9 -104q-1 -20 -15 -120t-19 -110q-2 14 -8 60.5t-8 60.5q-4 24 -9.5 65.5t-8.5 59.5q-4 21 -8.5 77t-11.5 93.5t-19 43.5q-13 5 -31 2q-14 0 -15 -50.5t8 -126t15.5 -124t12.5 -82.5q13 -69 21 -155
q1 -8 2.5 -25t2.5 -28.5t3 -28.5t4 -29t5 -26.5t6.5 -24t8 -18t10 -12.5t12.5 -4q15 -7 38 5q11 5 17 31.5t6 48.5q0 40 3.5 73.5t10.5 75.5t10 67q4 32 13 94t13 94q7 59 11.5 135.5t0.5 89.5z" />
    <glyph glyph-name="W" unicode="W" horiz-adv-x="417" 
d="M367 756q-17 -15 -17 -32q-1 -12 -13 -181t-19 -242q-30 209 -58 338q-2 7 -5 26t-6 31t-8 24.5t-12 15.5q-3 2 -6 2.5t-4.5 0.5t-4 -2t-3.5 -3t-4.5 -5t-4.5 -5q-13 -13 -27 -93t-20 -152q-2 -27 -9 -86t-11 -114q-5 28 -16 102t-16.5 106t-15 85.5t-19 92.5t-20.5 76
q-7 15 -17.5 19.5t-18.5 -6.5q-17 -15 -8 -113q0 -3 24.5 -136.5t53 -290t34.5 -191.5q5 -7 11 -9t13.5 0t12.5 4.5t13 8t10 6.5q6 22 9.5 42.5t5.5 47t3 37.5q3 28 11.5 135.5t17.5 158.5q9 -44 28.5 -168.5t32.5 -184.5q0 -1 3 -20t5 -27t5.5 -22.5t8.5 -21.5t11 -8
q7 -2 25 0q16 3 21 9q18 98 27.5 306.5t12.5 245.5q1 15 3.5 45t3.5 47.5t1 41.5t-3 44q-14 10 -41 15z" />
    <glyph glyph-name="X" unicode="X" horiz-adv-x="334" 
d="M169 509q-3 6 -73 177q-1 3 -5.5 18.5t-9.5 26t-13 14.5q-17 10 -32.5 -1.5t-15.5 -27.5q-2 -18 21 -83q88 -215 87 -228q0 -2 -21 -68t-46 -142t-34 -97q-2 -6 -8.5 -17.5t-10 -18.5t-3.5 -16.5t6 -16.5q2 -2 5 -7t7 -10q0 -8 19 -2q18 9 31.5 27.5t19.5 35t15.5 46
t14.5 42.5q3 10 10.5 29.5t11.5 29.5q2 5 8.5 21t10.5 29.5t4 25.5q12 -31 28.5 -105.5t20.5 -87.5q2 -5 6 -19.5t6 -21t6.5 -18.5t9 -19t11 -14t13.5 -12q11 -5 26 1t19 5q3 6 4.5 12.5t2 11t-1.5 12.5t-3 11t-5 13t-5 13q-12 32 -55 179.5t-43 152.5q1 6 55.5 154
t45.5 166q-9 20 -17 24q-12 9 -20.5 8t-19.5 -16q-23 -40 -51.5 -134.5t-31.5 -102.5z" />
    <glyph glyph-name="Y" unicode="Y" horiz-adv-x="250" 
d="M243 727q-19 13 -35 6.5t-26 -23.5q-9 -16 -16.5 -57t-12.5 -52q-13 10 -44.5 55.5t-47.5 55.5q-17 10 -34.5 2.5t-19.5 -25.5q-1 -9 26 -49q16 -21 48.5 -64.5t49.5 -66.5q-14 -57 -47.5 -180.5t-48.5 -186.5q-2 -7 -7.5 -28t-8.5 -34t-6 -29.5t-2.5 -26t5.5 -11.5
q10 -9 21 -10t28 2q9 4 13.5 16t8 33.5t5.5 27.5q9 40 32 123.5t33 128.5q8 37 37 147.5t43 176t6 69.5z" />
    <glyph glyph-name="Z" unicode="Z" horiz-adv-x="318" 
d="M305 748q-26 5 -34 5.5t-33.5 -4.5t-34.5 -6q-16 -1 -48.5 1t-54.5 -0.5t-37 -15.5q0 -9 6 -27q4 -17 32.5 -22.5t60.5 -2.5t60 -2q-37 -110 -102 -290.5t-97 -275.5q-8 -8 -13.5 -34t-4.5 -40q1 -17 10 -21t32 -5q33 8 111 3t91 11q3 2 11.5 7t11.5 7.5t5.5 9t1.5 14.5
q-17 14 -52.5 18.5t-67 2.5t-61.5 1q27 87 83.5 249t77.5 226q19 60 26 80q2 5 8 22t8 25t5 21t2.5 23t-3.5 20z" />
    <glyph glyph-name="backslash" unicode="\" horiz-adv-x="380" 
d="M323 53q0 9 -6 25q-20 44 -24 62q-3 12 -11 36q-16 42 -18 50q-4 16 -26.5 74.5t-43.5 111.5t-21 54q-5 15 -15.5 39t-13.5 33q-1 5 -5 14.5t-5 14.5q-24 73 -27 82l-9 21t-9.5 25t-4.5 22q-1 4 -6 7q-15 12 -30.5 6.5t-20.5 -24.5q-3 -9 1 -27q1 -5 3.5 -13.5t4.5 -15.5
t4 -13q1 -2 12.5 -37.5t33.5 -97t60 -160.5q9 -21 39 -131t40 -151q8 -25 25 -41q12 -11 35 -14q17 -1 27.5 11.5t10.5 36.5z" />
    <glyph glyph-name="asciicircum" unicode="^" horiz-adv-x="400" 
d="M200 598q-23 6 -39 -12l-53 -69q-23 -37 -50 -65q-9 -8 -15 -18q-1 -2 -3.5 -6t-4 -7.5t-2.5 -6.5q-7 -20 8 -34q6 -6 17.5 -9t20.5 0q11 5 18 20q23 48 77 112q9 12 24 1l35 -33l73 -83q7 -11 26 -17q7 -2 17 1q12 6 17.5 20t-0.5 28q-5 10 -14 20q-4 4 -27 27.5
t-41.5 42t-37 40t-22.5 31.5q-8 14 -24 17z" />
    <glyph glyph-name="underscore" unicode="_" horiz-adv-x="430" 
d="M185 0q8 -4 10 -4q14 2 20 4q42 7 70 5q13 -1 81 -1q13 0 26 11q6 5 6 12q0 13 -10 19q-16 11 -34 10q-28 0 -53 -3q-8 -1 -52 -3t-50 -2q-9 -1 -24.5 -2.5t-28.5 -2.5t-25 -1q-3 0 -11 0.5t-12 0.5q-18 2 -29 2q-21 0 -28 -18q-1 -2 -1 -7v-9l3 -5q3 -6 8.5 -9t16.5 -3
q5 0 11 -2h10q45 0 67 1q21 0 29 7z" />
    <glyph glyph-name="grave" unicode="`" horiz-adv-x="400" 
d="M279 637q5 8 4.5 11t-6.5 14q-18 36 -20 39t-6 8t-17 21.5t-32 41.5q-18 18 -46 7q-8 -4 -10 -11t-9 -10q-11 -5 20 -46t71 -69.5t51 -5.5z" />
    <glyph glyph-name="a" unicode="a" horiz-adv-x="301" 
d="M163 727q-30 21 -50 -50q-6 -21 -16 -75q-1 -7 -17 -74.5t-30.5 -133.5t-16.5 -83q-3 -23 -14 -86.5t-13 -94.5q0 -7 -2 -24.5t-2.5 -27t0 -24t4 -25.5t9.5 -21q14 -17 47 -3q6 0 10 23.5t6.5 67t4.5 57.5q10 87 27 144q5 1 28.5 1t32.5 3q7 -19 12.5 -45.5t12.5 -63.5
t12 -62q3 -11 6.5 -30.5t5.5 -30.5t6 -25.5t9.5 -21t13 -11.5t18.5 -2.5t25 11.5q9 27 -25 161q-22 91 -48.5 264.5t-30.5 197.5q-1 4 -2.5 13.5t-2 14.5t-2.5 14t-3.5 14.5t-4 11.5t-5 10t-5.5 6zM134 454q1 3 1.5 7t2 9t2.5 8t2 3q6 -3 10 -40.5t4 -61.5q-6 -4 -11 -5
t-8 -0.5t-8 1.5t-10 1q11 61 15 78z" />
    <glyph glyph-name="b" unicode="b" horiz-adv-x="258" 
d="M173 486q45 31 62 82t-5 106q-10 22 -42 52q-44 37 -109 29q-33 -5 -51.5 -16t-21.5 -39q-3 -29 2 -90t5 -80q1 -34 2.5 -86t1.5 -73q1 -25 2 -80t3 -97.5t5 -76.5q1 -44 5 -66t19 -33q18 -13 53.5 -17.5t60.5 5.5q36 15 52.5 55t25.5 105q10 94 -22 208q-12 50 -48 112z
M92 456q58 -7 79 -116q19 -111 0 -218q-4 -20 -23.5 -43t-37.5 -18q-5 2 -8.5 9t-4.5 16.5t-1.5 21t-0.5 22.5v21q-1 31 -3.5 136t-4.5 163q0 4 5 6zM87 532q0 22 -4.5 80.5t-3.5 87.5q36 7 64 -11.5t33 -49.5q9 -46 -17.5 -78t-71.5 -29z" />
    <glyph glyph-name="c" unicode="c" horiz-adv-x="252" 
d="M106 733q-30 -5 -55.5 -32.5t-34.5 -57.5q-11 -37 -12.5 -118.5t1.5 -148.5q0 -27 1.5 -59.5t3.5 -67.5t3 -50q9 -120 32 -157q28 -48 89 -49t92 45q1 2 5 7.5t7 10t5.5 11t1.5 11.5q0 7 -10.5 18.5t-22.5 7.5q-23 -7 -27 -28t-39 -27q-14 -3 -25 9.5t-17 37.5t-8.5 40.5
t-4.5 38.5q-15 125 -9 353q2 88 16 113q12 22 35 15q6 -2 10 -3.5t8 -4.5t6 -4t5 -7l4 -8t5 -11.5t6 -13.5q6 -14 27 -5q27 11 22 41q0 4 -2 9q-16 50 -40 64q-13 9 -40 15.5t-38 4.5z" />
    <glyph glyph-name="d" unicode="d" horiz-adv-x="303" 
d="M50 0q67 0 116.5 40t75.5 106.5t37.5 138t10.5 147.5q-3 127 -28 195.5t-105 108.5q-51 15 -90.5 9t-42.5 -28q-21 0 -22 -350.5t17 -361.5q15 -5 31 -5zM86 85q-7 0 -10.5 147.5t0.5 297.5t17 156q62 0 95 -74q45 -97 30 -258.5t-75 -229.5q-31 -33 -57 -39z" />
    <glyph glyph-name="e" unicode="e" horiz-adv-x="251" 
d="M80 651q17 12 62 14t58 24q11 20 -2.5 32.5t-40.5 8.5q-7 -1 -36.5 -4.5t-51 -8t-31.5 -9.5q-33 -17 -27 -89q9 -94 11 -131q3 -66 13.5 -234.5t13.5 -203.5q0 -51 31 -51q67 5 133 12q10 0 17 20.5t-3 26.5q-40 20 -103 3q-7 49 -12.5 143.5t-9.5 132.5q1 0 6 2t6.5 2.5
l6 2t5.5 2.5t4.5 3t4.5 3.5t3 4t3 5.5t1 6q2 13 -5 20.5t-16 10.5t-26 6q1 41 -7 123.5t-8 122.5z" />
    <glyph glyph-name="f" unicode="f" horiz-adv-x="236" 
d="M226 712q-2 14 -14 20t-33.5 5t-37.5 -3.5t-38 -7.5q-6 -1 -9 -2q-5 -3 -27.5 -2t-29.5 1q-12 -3 -18 -11t-7 -21.5t0.5 -25.5t4 -32.5t3.5 -33.5q5 -84 12 -220q15 -283 27 -334q10 -43 31 -44q11 0 29 11q6 4 9 13.5t3.5 24.5t-0.5 28.5t-3 32.5t-2 30q-2 44 -14 162.5
t-11 177.5q2 1 13.5 3t18 5t12 12t4.5 23q-8 22 -56 22q-1 10 -4 37.5t-3 37t1 38.5q8 1 29 3t38.5 4t35.5 7t28 15t8 24z" />
    <glyph glyph-name="g" unicode="g" horiz-adv-x="255" 
d="M207 595q-7 1 -9 -2q-1 -4 1.5 -5t7.5 -1v8zM169 329q17 0 3 -156q-7 -74 -26 -97q-14 -15 -27 -11t-16 17q-25 75 -27 209q0 21 1 66.5t0 72.5q-5 97 0 144q11 103 44 105q16 1 32.5 -24t25.5 -26q11 -1 18.5 9t9.5 19q6 33 -26 65t-65 24q-55 -14 -79 -56.5
t-26.5 -119.5t0.5 -194q1 -55 2 -85q0 -6 1.5 -32.5t2 -36t2.5 -34.5t3.5 -37t4.5 -32.5t6.5 -32.5t8 -26t10.5 -22.5t13 -14.5q6 -12 34 -17t46 1q21 6 39 28.5t27 48.5q9 27 14 65.5t6 74.5t1 74v65q3 18 -51 27q-56 9 -66 -4q-1 -1 -1 -3q-2 -5 -3 -17.5t-2 -15.5
q0 -9 30 -11.5t30 -9.5z" />
    <glyph glyph-name="h" unicode="h" horiz-adv-x="250" 
d="M194 742q-5 0 -9 -1t-6.5 -4.5t-4 -5t-3.5 -7.5t-3 -8q-8 -21 -3 -148t-1 -130q-2 -2 -41.5 -4.5t-40.5 2.5q-5 5 -4 147t-14 146q-19 7 -30.5 -3t-14.5 -26q-1 -6 -1 -100q0 -67 -0.5 -198t-0.5 -199q0 -17 -1 -50.5t-1.5 -56t1 -46.5t6.5 -36.5t14 -12.5q3 0 10.5 -1
t11 -1t8.5 1.5t7 6.5q12 22 7 108q-4 56 -3 150.5t7 94.5q19 4 45 6t35 -4q9 -137 8 -283q0 -52 9 -70q15 -11 35 -5q19 10 19 38q-1 315 -17 690q0 10 -24 10z" />
    <glyph glyph-name="i" unicode="i" horiz-adv-x="130" 
d="M93 30q-4 76 3.5 233t4.5 227q-1 19 0 59t0 74t-6 62q-3 21 -11.5 34t-22.5 6q-11 -4 -17.5 -12t-8.5 -20.5t-2 -23t0.5 -29.5t0.5 -30q0 -81 -4 -265.5t-5 -233.5q0 -20 -0.5 -38t4.5 -35.5t15 -27.5q13 -16 37 -4h1q2 1 3 1t2.5 2t2.5 4t2 6.5t1 10.5z" />
    <glyph glyph-name="j" unicode="j" horiz-adv-x="232" 
d="M204 736q-27 3 -31 0q-12 0 -17 -58.5t-8 -166t-6 -146.5q0 -7 -1 -48.5t-2 -75.5t-4 -74.5t-9.5 -64.5t-15.5 -25q-16 -3 -29.5 19t-13.5 40q0 33 -27 40q-23 5 -31 -13q-2 -3 -2 -7q-3 -23 4.5 -50.5t15.5 -41.5q31 -51 70 -56q27 -4 46.5 7.5t30 29t16.5 47.5t8 50
t3 51q2 55 6 200.5t7 215.5q0 7 1.5 22t2 24.5t1 23t0 22.5t-2 18t-4.5 13t-8 4z" />
    <glyph glyph-name="k" unicode="k" 
d="M116 443q18 32 32.5 60t22.5 44.5t23 49.5t26 56q29 53 22 72q-7 13 -23 10.5t-26 -10.5q-20 -17 -49.5 -84t-49.5 -82q-1 18 -2.5 78t-4.5 88q-19 14 -34.5 5t-20.5 -28q-4 -13 -2 -46q2 -91 -11 -319t-9 -330q0 -10 16.5 -13.5t33 1.5t16.5 16q0 32 -1 91t-1 90t3 76
t10 85q62 -151 100 -288q1 -3 2.5 -8t2 -7.5t2 -7t3.5 -7t4.5 -6t6.5 -6.5t9 -6q10 -8 28 -3t22 20q8 32 -28 122q-51 137 -68.5 179.5t-54.5 107.5z" />
    <glyph glyph-name="l" unicode="l" horiz-adv-x="240" 
d="M82 87q-6 88 0.5 272.5t-0.5 275.5q-5 93 -29 103q-10 5 -25 -3q-12 -2 -14.5 -26t1 -71.5t3.5 -62.5q0 -234 -5 -303q0 -10 -2 -48.5t-2.5 -69t0.5 -65t8.5 -54.5t20.5 -20q5 0 34.5 -3t66 -5.5t61.5 -1.5q14 0 21 13.5t3 35.5q-2 7 -18 11t-36.5 5.5l-41 3t-34 5
t-12.5 8.5z" />
    <glyph glyph-name="m" unicode="m" horiz-adv-x="294" 
d="M69 746q-18 3 -28.5 0.5t-14 -12.5t-4.5 -18.5t0 -26.5t1 -26q0 -14 -2 -166.5t-7 -235.5q-1 -19 0.5 -54t1.5 -46q0 -16 -1 -50t0.5 -56t7.5 -40q8 -18 31 -8q6 3 10 9t5.5 15.5t2 17.5t1 21t0.5 19q1 27 1 89.5t1 98.5q5 105 5 180q0 16 1 46.5t1 54.5q5 -4 11 -19
q6 -18 22 -48t30 -33q4 -2 7.5 -2t9 7t17.5 25q6 10 11.5 20t8.5 16t6 11.5t5 8.5t3.5 6t3 4t3 2.5t3.5 2.5q-11 -178 -11 -461q0 -8 -1.5 -29t-1 -35t3.5 -20q4 -7 13.5 -11t18.5 -1q27 5 27 31q2 354 10 613q0 8 2.5 30t2 34.5t-4.5 15.5q-6 9 -18.5 11t-22.5 -4
q-2 -1 -14 -20q-3 -6 -21.5 -47t-35.5 -74.5t-22 -33.5q-4 0 -8 8t-9 23t-7 19q-5 16 -11 31q-1 2 -9.5 33.5t-17.5 52.5t-17 21z" />
    <glyph glyph-name="n" unicode="n" 
d="M98 723q-12 18 -25.5 23.5t-24 2t-15.5 -12.5q-10 -39 -10 -155q0 -47 -5 -191t-3 -210v-80q0 -7 -1 -25t-1 -27t1.5 -21t7.5 -17t15 -6q16 -1 26.5 9t14 34t4 39t0.5 47v18q0 11 1.5 169.5t1.5 166.5q6 -14 9 -32t4 -22q1 -3 14 -61.5t26.5 -124.5t13.5 -79q0 -10 3 -34
t7 -49.5t5 -30.5q6 -48 32 -54q17 -3 22 14q13 73 15 229t4 196q3 36 0 124.5t-2 116.5q0 18 -1 27t-8 18.5t-22 6.5q-19 7 -28.5 -15.5t-8.5 -54.5l10 -330q-7 50 -39.5 207.5t-42.5 183.5z" />
    <glyph glyph-name="o" unicode="o" horiz-adv-x="247" 
d="M226 435q0 25 -1 79t-1 76q0 16 -7 53.5t-11 43.5q-41 60 -122 46q-32 -6 -55 -46q-19 -34 -19 -156v-125q-2 -39 -3 -123t-4 -122q-2 -21 3 -55q2 -23 22 -55q33 -56 99 -49q15 1 33 15t28 29q21 33 25 119q1 28 4.5 73.5t4.5 59.5q6 64 4 137zM150 654q11 -25 15 -62
q3 -34 -0.5 -188t-12.5 -202q-2 -10 -2.5 -47t-6.5 -59.5t-24 -22.5q-19 0 -31.5 7.5t-18 18.5t-7 29.5t-1 33.5t2 39t1.5 39q0 9 2 134.5t-1 139.5q0 8 -0.5 23.5t-1 23t-0.5 21t1 20.5t2.5 18t4.5 17t7 13t10 11.5t14 7.5q13 6 27.5 0t19.5 -15z" />
    <glyph glyph-name="p" unicode="p" 
d="M95 500q0 5 25 7t56 7.5t43 17.5q45 47 39 121q-6 67 -27 82q-32 23 -116 30.5t-96 -3.5q-5 -1 -8 -11t-3.5 -26.5t-0.5 -31t0.5 -34.5t0.5 -28t1 -130.5t1 -249t-2 -207.5q1 -16 2 -22.5t6.5 -15t14.5 -10.5q17 -6 28 0.5t14 21t4.5 33.5t0.5 38.5t1 35.5
q4 50 5.5 147.5t3 162.5t7.5 65zM76 579q-12 115 -4 121q-4 10 44 10q66 0 82 -21q11 -14 9 -52t-12 -49t-39.5 -16t-54.5 -2.5t-25 9.5z" />
    <glyph glyph-name="q" unicode="q" horiz-adv-x="417" 
d="M241 142q-14 -6 -17.5 -3t-10.5 12.5t-16 12.5q-14 4 -20 0q-9 -7 -3 -28t13.5 -43t4.5 -22q-11 0 -20.5 2.5t-17 9.5t-13.5 12.5t-11 18t-8 19.5t-6.5 24t-5 23.5t-4.5 25.5t-4 24q-27 173 -20 284q6 87 29 122q15 23 40 29.5t47 -11.5q27 -23 42 -79.5t15 -112.5
q0 -29 1.5 -85t2 -89.5t-3.5 -75t-14 -70.5zM246 708q-39 31 -92 31q-34 0 -72 -26q-39 -28 -59.5 -88t-21.5 -130.5t3 -125.5t12 -100q4 -20 10 -58.5t9.5 -55.5t12 -40.5t20.5 -41.5q55 -77 141 -59q5 1 16 6t16 6q52 -43 107 -7q27 16 46 52q11 22 -1 49t-43 26
q-15 -1 -16 -18t-1 -35t-15 -20q-20 -3 -32 12q6 12 11 28t7.5 27.5t7 34t6.5 33.5q9 37 11 92q6 125 -9 230q-8 54 -30.5 107t-43.5 71z" />
    <glyph glyph-name="r" unicode="r" horiz-adv-x="305" 
d="M192 443q4 3 16 11t22 16.5t17 18.5q33 32 39.5 83.5t-21.5 101.5q-21 34 -78 50.5t-104.5 16t-54.5 -10.5q-6 1 -10 -7.5t-6 -26t-2.5 -38.5t0.5 -48.5t1.5 -51t1.5 -51t1 -44.5q0 -57 -5.5 -207.5t-3.5 -233.5q15 -31 41 -19q32 22 35 85q0 41 3 158t2 177q23 3 36 -6
t27 -29q45 -60 45 -188q3 -47 4 -83.5t0.5 -50t0.5 -23t4 -17.5q14 -25 32 -22t28 22q2 2 2 78q2 142 -11 213q-2 13 -6.5 26t-8.5 22t-11.5 22.5t-11 18.5t-13.5 20t-11 17zM82 519q-3 35 -5 88t1 61q2 5 27.5 3t61 -14t44.5 -25q11 -15 6 -51t-16 -48q-10 -11 -39.5 -17
t-54.5 -5t-25 8z" />
    <glyph glyph-name="s" unicode="s" horiz-adv-x="220" 
d="M4 114q-6 -15 2 -40q6 -16 27 -37t34 -27q36 -17 70.5 -5.5t48.5 41.5q14 28 9 75q-2 30 -28 223q-4 35 -12 72t-18.5 77.5t-14.5 59.5q-4 16 -7.5 37t-5.5 50.5t8 33.5q9 10 15.5 7.5t7.5 -9t10.5 -17t24.5 -15.5q5 -2 29 11q8 10 -2 39q-25 73 -102 63
q-47 -7 -65 -52.5t-1 -97.5q11 -34 39.5 -182.5t35.5 -199.5q1 -8 4.5 -28.5t5 -32t2.5 -28t-1 -30.5t-7 -26q-6 -6 -11 -2t-11.5 14t-12 21t-13.5 19.5t-15 8.5q-19 0 -46 -23z" />
    <glyph glyph-name="t" unicode="t" horiz-adv-x="271" 
d="M260 663q12 0 10 25q-3 36 -32 46q-3 0 -6 1q-4 0 -26 1.5t-39 2t-43 1t-45.5 -2t-38 -6.5t-29 -12t-11.5 -20q-1 -13 11.5 -25.5t26.5 -16.5q8 -2 25.5 1t29 3t11.5 -8q-13 -203 -13 -417q0 -8 1.5 -39.5t0.5 -49.5q-5 -39 -0.5 -85.5t27.5 -56.5q13 -4 21.5 -5t14 7.5
t8 16.5t3 22.5t0 25.5t-0.5 25.5v22.5q4 71 2.5 281.5t11.5 257.5q0 7 15.5 6t33.5 -4t31 2z" />
    <glyph glyph-name="u" unicode="u" horiz-adv-x="265" 
d="M17 743q-6 -10 -6 -27q3 -39 -0.5 -108.5t-2.5 -102.5q1 -24 -2 -140q-6 -122 0 -187q2 -49 8 -68q8 -27 13 -34q23 -57 77 -74.5t98 27.5q27 31 42 108q7 39 10.5 95.5t4 97.5t-0.5 115.5t-1 99.5q0 137 -7 184q-3 9 -27.5 17t-33.5 -4q-6 -11 -9.5 -55.5t-4 -107
t-0.5 -117.5t1 -109.5t1 -60.5v-24v-46.5t-1 -40.5t-3.5 -38t-7 -28.5t-11.5 -24t-17 -12.5q-24 -8 -38 19q-18 33 -22 81t0.5 126t4.5 101q0 209 -10 329q0 17 -23.5 19.5t-31.5 -10.5z" />
    <glyph glyph-name="v" unicode="v" horiz-adv-x="250" 
d="M237 719q-9 21 -42 15q-14 -5 -21.5 -45.5t-8.5 -77.5q-9 -101 -9 -104q-1 -20 -15 -120t-19 -110q-2 14 -8 60.5t-8 60.5q-4 24 -9.5 65.5t-8.5 59.5q-4 21 -8.5 77t-11.5 93.5t-19 43.5q-13 5 -31 2q-14 0 -15 -50.5t8 -126t15.5 -124t12.5 -82.5q13 -69 21 -155
q1 -8 2.5 -25t2.5 -28.5t3 -28.5t4 -29t5 -26.5t6.5 -24t8 -18t10 -12.5t12.5 -4q15 -7 38 5q11 5 17 31.5t6 48.5q0 40 3.5 73.5t10.5 75.5t10 67q4 32 13 94t13 94q7 59 11.5 135.5t0.5 89.5z" />
    <glyph glyph-name="w" unicode="w" horiz-adv-x="417" 
d="M367 756q-17 -15 -17 -32q-1 -12 -13 -181t-19 -242q-30 209 -58 338q-2 7 -5 26t-6 31t-8 24.5t-12 15.5q-3 2 -6 2.5t-4.5 0.5t-4 -2t-3.5 -3t-4.5 -5t-4.5 -5q-13 -13 -27 -93t-20 -152q-2 -27 -9 -86t-11 -114q-5 28 -16 102t-16.5 106t-15 85.5t-19 92.5t-20.5 76
q-7 15 -17.5 19.5t-18.5 -6.5q-17 -15 -8 -113q0 -3 24.5 -136.5t53 -290t34.5 -191.5q5 -7 11 -9t13.5 0t12.5 4.5t13 8t10 6.5q6 22 9.5 42.5t5.5 47t3 37.5q3 28 11.5 135.5t17.5 158.5q9 -44 28.5 -168.5t32.5 -184.5q0 -1 3 -20t5 -27t5.5 -22.5t8.5 -21.5t11 -8
q7 -2 25 0q16 3 21 9q18 98 27.5 306.5t12.5 245.5q1 15 3.5 45t3.5 47.5t1 41.5t-3 44q-14 10 -41 15z" />
    <glyph glyph-name="x" unicode="x" horiz-adv-x="334" 
d="M169 509q-3 6 -73 177q-1 3 -5.5 18.5t-9.5 26t-13 14.5q-17 10 -32.5 -1.5t-15.5 -27.5q-2 -18 21 -83q88 -215 87 -228q0 -2 -21 -68t-46 -142t-34 -97q-2 -6 -8.5 -17.5t-10 -18.5t-3.5 -16.5t6 -16.5q2 -2 5 -7t7 -10q0 -8 19 -2q18 9 31.5 27.5t19.5 35t15.5 46
t14.5 42.5q3 10 10.5 29.5t11.5 29.5q2 5 8.5 21t10.5 29.5t4 25.5q12 -31 28.5 -105.5t20.5 -87.5q2 -5 6 -19.5t6 -21t6.5 -18.5t9 -19t11 -14t13.5 -12q11 -5 26 1t19 5q3 6 4.5 12.5t2 11t-1.5 12.5t-3 11t-5 13t-5 13q-12 32 -55 179.5t-43 152.5q1 6 55.5 154
t45.5 166q-9 20 -17 24q-12 9 -20.5 8t-19.5 -16q-23 -40 -51.5 -134.5t-31.5 -102.5z" />
    <glyph glyph-name="y" unicode="y" horiz-adv-x="250" 
d="M243 727q-19 13 -35 6.5t-26 -23.5q-9 -16 -16.5 -57t-12.5 -52q-13 10 -44.5 55.5t-47.5 55.5q-17 10 -34.5 2.5t-19.5 -25.5q-1 -9 26 -49q16 -21 48.5 -64.5t49.5 -66.5q-14 -57 -47.5 -180.5t-48.5 -186.5q-2 -7 -7.5 -28t-8.5 -34t-6 -29.5t-2.5 -26t5.5 -11.5
q10 -9 21 -10t28 2q9 4 13.5 16t8 33.5t5.5 27.5q9 40 32 123.5t33 128.5q8 37 37 147.5t43 176t6 69.5z" />
    <glyph glyph-name="z" unicode="z" horiz-adv-x="318" 
d="M305 748q-26 5 -34 5.5t-33.5 -4.5t-34.5 -6q-16 -1 -48.5 1t-54.5 -0.5t-37 -15.5q0 -9 6 -27q4 -17 32.5 -22.5t60.5 -2.5t60 -2q-37 -110 -102 -290.5t-97 -275.5q-8 -8 -13.5 -34t-4.5 -40q1 -17 10 -21t32 -5q33 8 111 3t91 11q3 2 11.5 7t11.5 7.5t5.5 9t1.5 14.5
q-17 14 -52.5 18.5t-67 2.5t-61.5 1q27 87 83.5 249t77.5 226q19 60 26 80q2 5 8 22t8 25t5 21t2.5 23t-3.5 20z" />
    <glyph glyph-name="braceleft" unicode="{" horiz-adv-x="400" 
d="M342 -58q-3 2 -9 5q-8 9 -26 3q-8 -5 -22 -9q-10 -4 -18 -3q-13 2 -23.5 13t-11.5 24q0 10 -0.5 30t-0.5 31q2 121 -1 181q-3 48 -23 76q-1 2 -4.5 8.5t-5.5 10.5q-7 10 -1 23q2 4 4 7q14 18 23 76q3 15 -1 46q-5 35 -15 72q-2 7 -10 80q-1 27 4 62q6 25 31 27
q7 0 19 4.5t14 5.5q9 5 11 16q2 21 -15 30q-3 1 -11 3t-11 3h-38q-33 -1 -66 -40q-16 -20 -16 -56q1 -17 5 -55q8 -22 10 -35q0 -1 6 -34q1 -7 5 -22.5t5 -22.5t3 -22t0 -23q0 -6 1 -8q3 -32 -17 -66q-26 -35 -58 -42q-4 -3 -10 -5q-21 -13 -11 -37q14 -31 47 -26q9 0 17 3
q18 8 32 -15q10 -13 10 -32q1 -11 2.5 -34.5t2.5 -35.5l-4 -46q-10 -70 -9 -91v-17q-3 -20 8 -62q5 -18 21 -28q2 -2 7.5 -6t7.5 -6q37 -30 86 -21q21 3 40 17q23 17 16 43z" />
    <glyph glyph-name="braceright" unicode="}" horiz-adv-x="400" 
d="M94 720q1 -1 4 -2.5t4 -2.5q8 -10 26 -5q9 6 23 8q10 4 18 3q13 -3 23 -14.5t10 -24.5q-1 -10 -1.5 -30.5t-0.5 -30.5q-7 -142 -7 -181q2 -48 20 -77q8 -17 9 -19q8 -11 0 -23q-2 -4 -4 -7q-15 -17 -26 -75q-5 -18 -1 -46q3 -33 11 -72q2 -7 7 -81q0 -27 -7 -62
q-8 -25 -32 -25l-33 -9q-10 -3 -12 -15q-3 -20 14 -31l10.5 -3.5l10.5 -3.5q6 0 18.5 -0.5t19.5 -0.5q34 -1 68 37q16 17 18 55q0 17 -2 55q-6 17 -9 35q1 6 -1.5 19.5t-2.5 15.5q0 1 -5.5 30t-4.5 29.5t1 30.5q0 6 -1 8q-1 32 20 65q27 34 60 40q4 3 10 4q21 13 13 37
q-14 31 -46 28q-7 0 -17 -2q-18 -7 -32 16q-9 14 -8 32q0 12 -0.5 35.5t-1.5 35.5l6 45q13 75 13 91q-1 6 1 17q4 23 -6 62q-3 18 -19 29q-2 2 -7.5 6.5t-7.5 6.5q-36 32 -85 24q-22 -2 -40 -15q-25 -16 -18 -42z" />
    <glyph glyph-name="exclamdown" unicode="&#xa1;" horiz-adv-x="220" 
d="M128 536h-1v51q-2 20 -4 25q-11 31 -44 24q-2 0 -7 -2t-8 -2q-21 -7 -23 -32q-1 -7 1 -17q1 -9 5.5 -35t5.5 -41q0 -1 3 -106v-16.5t1 -17.5q6 -74 9 -110q2 -39 7 -70q6 -54 6 -81q0 -11 0.5 -23t1.5 -26.5t1 -22.5q0 -13 12 -18q3 -1 7.5 -3.5t6.5 -3.5q15 -6 32.5 3.5
t16.5 24.5q0 4 -3 29t-5 50t-2 36q0 19 -4 82t-9 126t-5 68q-1 18 -1 108zM75 660q17 0 31.5 11.5t18.5 27.5q1 5 -1 13q-5 11 -17.5 19t-25.5 7q-29 -1 -47 -34q-3 -4 -1 -12q6 -30 42 -32z" />
    <glyph glyph-name="dieresis" unicode="&#xa8;" horiz-adv-x="400" 
d="M350 674l-2 8q-2 8 -4 11q-19 29 -53 31q-21 0 -33 -10q-12 -13 -10 -37t25 -33q23 -12 51 -4q23 6 26 34zM350 674l-2 8q-2 8 -4 11q-19 29 -53 31q-21 0 -33 -10q-12 -13 -10 -37t25 -33q23 -12 51 -4q23 6 26 34zM350 674l-2 8q-2 8 -4 11q-19 29 -53 31
q-21 0 -33 -10q-12 -13 -10 -37t25 -33q23 -12 51 -4q23 6 26 34zM160 684q0 1 -2 8.5t-4 10.5q-19 29 -53 31q-21 0 -33 -10q-12 -13 -10 -37t25 -33q23 -12 51 -4q23 6 26 34zM160 684q0 1 -2 8.5t-4 10.5q-19 29 -53 31q-21 0 -33 -10q-12 -13 -10 -37t25 -33
q23 -12 51 -4q23 6 26 34zM160 684q0 1 -2 8.5t-4 10.5q-19 29 -53 31q-21 0 -33 -10q-12 -13 -10 -37t25 -33q23 -12 51 -4q23 6 26 34z" />
    <glyph glyph-name="acute" unicode="&#xb4;" horiz-adv-x="400" 
d="M147 619q8 -3 11 -2t14 9q32 23 35 26l61 66q15 21 -1 46q-5 7 -12 8.5t-11 6.5q-7 10 -43 -29t-55.5 -77.5t1.5 -53.5z" />
    <glyph glyph-name="periodcentered" unicode="&#xb7;" horiz-adv-x="240" 
d="M177 258q0 1 -2 9.5t-4 12.5q-20 30 -58 32q-21 3 -33 -12q-14 -13 -12.5 -39t26.5 -36q28 -12 56 -3q23 4 27 36z" />
    <glyph glyph-name="questiondown" unicode="&#xbf;" horiz-adv-x="280" 
d="M201 450v67q0 23 -5 34q-4 11 -17 14q-26 6 -39 -18q-4 -8 -7 -12q-4 -10 -4 -15q-2 -42 -2 -63q-2 -61 -11 -110q-8 -43 -26 -73q-26 -44 -47 -88q-9 -26 -10 -32q-5 -33 -5 -60q1 -46 36 -72q12 -11 42.5 -16t61.5 -1q45 6 81 42q13 12 16.5 32t-4.5 39
q-10 19 -35.5 20t-35.5 -15q-4 -4 -6 -14q-4 -22 -24 -35t-36.5 -2.5t-13.5 47.5q2 24 31 78q21 44 25 51q18 30 26.5 97t8.5 105zM166 710q-14 2 -28 -6q-19 -9 -23 -33t12 -38q13 -12 33.5 -14t39.5 10q16 13 15 38t-18 36q-14 7 -31 7z" />
    <glyph glyph-name="agrave" unicode="&#xe0;" horiz-adv-x="301" 
d="M163 727q-30 21 -50 -50q-6 -21 -16 -75q-1 -7 -17 -74.5t-30.5 -133.5t-16.5 -83q-3 -23 -14 -86.5t-13 -94.5q0 -7 -2 -24.5t-2.5 -27t0 -24t4 -25.5t9.5 -21q14 -17 47 -3q6 0 10 23.5t6.5 67t4.5 57.5q10 87 27 144q5 1 28.5 1t32.5 3q7 -19 12.5 -45.5t12.5 -63.5
t12 -62q3 -11 6.5 -30.5t5.5 -30.5t6 -25.5t9.5 -21t13 -11.5t18.5 -2.5t25 11.5q9 27 -25 161q-22 91 -48.5 264.5t-30.5 197.5q-1 4 -2.5 13.5t-2 14.5t-2.5 14t-3.5 14.5t-4 11.5t-5 10t-5.5 6zM134 454q1 3 1.5 7t2 9t2.5 8t2 3q6 -3 10 -40.5t4 -61.5q-6 -4 -11 -5
t-8 -0.5t-8 1.5t-10 1q11 61 15 78zM177 771q5 7 4.5 10.5t-6.5 14.5q-18 36 -20 39t-6 8t-17 21.5t-32 41.5q-18 18 -46 7q-8 -4 -10 -11t-9 -10q-11 -5 20 -46t71 -69.5t51 -5.5z" />
    <glyph glyph-name="aacute" unicode="&#xe1;" horiz-adv-x="301" 
d="M163 727q-30 21 -50 -50q-6 -21 -16 -75q-1 -7 -17 -74.5t-30.5 -133.5t-16.5 -83q-3 -23 -14 -86.5t-13 -94.5q0 -7 -2 -24.5t-2.5 -27t0 -24t4 -25.5t9.5 -21q14 -17 47 -3q6 0 10 23.5t6.5 67t4.5 57.5q10 87 27 144q5 1 28.5 1t32.5 3q7 -19 12.5 -45.5t12.5 -63.5
t12 -62q3 -11 6.5 -30.5t5.5 -30.5t6 -25.5t9.5 -21t13 -11.5t18.5 -2.5t25 11.5q9 27 -25 161q-22 91 -48.5 264.5t-30.5 197.5q-1 4 -2.5 13.5t-2 14.5t-2.5 14t-3.5 14.5t-4 11.5t-5 10t-5.5 6zM134 454q1 3 1.5 7t2 9t2.5 8t2 3q6 -3 10 -40.5t4 -61.5q-6 -4 -11 -5
t-8 -0.5t-8 1.5t-10 1q11 61 15 78zM147 767q8 -3 11 -2t14 9q32 23 35 26l61 66q15 21 -1 46q-5 7 -12 8.5t-11 6.5q-7 10 -43 -29t-55.5 -77.5t1.5 -53.5z" />
    <glyph glyph-name="egrave" unicode="&#xe8;" horiz-adv-x="251" 
d="M80 651q17 12 62 14t58 24q11 20 -2.5 32.5t-40.5 8.5q-7 -1 -36.5 -4.5t-51 -8t-31.5 -9.5q-33 -17 -27 -89q9 -94 11 -131q3 -66 13.5 -234.5t13.5 -203.5q0 -51 31 -51q67 5 133 12q10 0 17 20.5t-3 26.5q-40 20 -103 3q-7 49 -12.5 143.5t-9.5 132.5q1 0 6 2t6.5 2.5
l6 2t5.5 2.5t4.5 3t4.5 3.5t3 4t3 5.5t1 6q2 13 -5 20.5t-16 10.5t-26 6q1 41 -7 123.5t-8 122.5zM141 763q5 7 4.5 10.5t-6.5 14.5q-18 36 -20 39t-6 8t-17 21.5t-32 41.5q-18 18 -46 7q-8 -4 -10 -11t-9 -10q-11 -5 20 -46t71 -69.5t51 -5.5z" />
    <glyph glyph-name="eacute" unicode="&#xe9;" horiz-adv-x="251" 
d="M80 651q17 12 62 14t58 24q11 20 -2.5 32.5t-40.5 8.5q-7 -1 -36.5 -4.5t-51 -8t-31.5 -9.5q-33 -17 -27 -89q9 -94 11 -131q3 -66 13.5 -234.5t13.5 -203.5q0 -51 31 -51q67 5 133 12q10 0 17 20.5t-3 26.5q-40 20 -103 3q-7 49 -12.5 143.5t-9.5 132.5q1 0 6 2t6.5 2.5
l6 2t5.5 2.5t4.5 3t4.5 3.5t3 4t3 5.5t1 6q2 13 -5 20.5t-16 10.5t-26 6q1 41 -7 123.5t-8 122.5zM96 762q8 -3 11 -2t14 9q32 23 35 26l61 66q15 21 -1 46q-5 7 -12 8.5t-11 6.5q-7 10 -43 -29t-55.5 -77.5t1.5 -53.5z" />
    <glyph glyph-name="iacute" unicode="&#xed;" horiz-adv-x="130" 
d="M93 30q-4 76 3.5 233t4.5 227q-1 19 0 59t0 74t-6 62q-3 21 -11.5 34t-22.5 6q-11 -4 -17.5 -12t-8.5 -20.5t-2 -23t0.5 -29.5t0.5 -30q0 -81 -4 -265.5t-5 -233.5q0 -20 -0.5 -38t4.5 -35.5t15 -27.5q13 -16 37 -4h1q2 1 3 1t2.5 2t2.5 4t2 6.5t1 10.5zM56 756
q8 -3 11 -2t14 9q32 23 35 26l61 66q15 21 -1 46q-5 7 -12 8.5t-11 6.5q-7 10 -43 -29t-55.5 -77.5t1.5 -53.5z" />
    <glyph glyph-name="ograve" unicode="&#xf2;" horiz-adv-x="247" 
d="M226 435q0 25 -1 79t-1 76q0 16 -7 53.5t-11 43.5q-41 60 -122 46q-32 -6 -55 -46q-19 -34 -19 -156v-125q-2 -39 -3 -123t-4 -122q-2 -21 3 -55q2 -23 22 -55q33 -56 99 -49q15 1 33 15t28 29q21 33 25 119q1 28 4.5 73.5t4.5 59.5q6 64 4 137zM150 654q11 -25 15 -62
q3 -34 -0.5 -188t-12.5 -202q-2 -10 -2.5 -47t-6.5 -59.5t-24 -22.5q-19 0 -31.5 7.5t-18 18.5t-7 29.5t-1 33.5t2 39t1.5 39q0 9 2 134.5t-1 139.5q0 8 -0.5 23.5t-1 23t-0.5 21t1 20.5t2.5 18t4.5 17t7 13t10 11.5t14 7.5q13 6 27.5 0t19.5 -15zM142 774q4 7 4 10.5
t-6 14.5q-18 36 -20 39t-6 8t-17 21.5t-32 41.5q-18 18 -46 7q-8 -4 -10 -11t-9 -10q-11 -5 20 -46t71 -69.5t51 -5.5z" />
    <glyph glyph-name="oacute" unicode="&#xf3;" horiz-adv-x="247" 
d="M226 435q0 25 -1 79t-1 76q0 16 -7 53.5t-11 43.5q-41 60 -122 46q-32 -6 -55 -46q-19 -34 -19 -156v-125q-2 -39 -3 -123t-4 -122q-2 -21 3 -55q2 -23 22 -55q33 -56 99 -49q15 1 33 15t28 29q21 33 25 119q1 28 4.5 73.5t4.5 59.5q6 64 4 137zM150 654q11 -25 15 -62
q3 -34 -0.5 -188t-12.5 -202q-2 -10 -2.5 -47t-6.5 -59.5t-24 -22.5q-19 0 -31.5 7.5t-18 18.5t-7 29.5t-1 33.5t2 39t1.5 39q0 9 2 134.5t-1 139.5q0 8 -0.5 23.5t-1 23t-0.5 21t1 20.5t2.5 18t4.5 17t7 13t10 11.5t14 7.5q13 6 27.5 0t19.5 -15zM111 769q8 -3 11.5 -2
t13.5 9q32 23 35 26l61 66q15 21 -1 46q-5 7 -12 8.5t-11 6.5q-7 10 -43 -29t-55.5 -77.5t1.5 -53.5z" />
    <glyph glyph-name="ugrave" unicode="&#xf9;" horiz-adv-x="265" 
d="M17 743q-6 -10 -6 -27q3 -39 -0.5 -108.5t-2.5 -102.5q1 -24 -2 -140q-6 -122 0 -187q2 -49 8 -68q8 -27 13 -34q23 -57 77 -74.5t98 27.5q27 31 42 108q7 39 10.5 95.5t4 97.5t-0.5 115.5t-1 99.5q0 137 -7 184q-3 9 -27.5 17t-33.5 -4q-6 -11 -9.5 -55.5t-4 -107
t-0.5 -117.5t1 -109.5t1 -60.5v-24v-46.5t-1 -40.5t-3.5 -38t-7 -28.5t-11.5 -24t-17 -12.5q-24 -8 -38 19q-18 33 -22 81t0.5 126t4.5 101q0 209 -10 329q0 17 -23.5 19.5t-31.5 -10.5zM150 799q4 7 4 10.5t-6 14.5q-18 36 -20 39t-6 8t-17 21.5t-32 41.5q-18 18 -46 7
q-8 -4 -10 -11t-9 -10q-11 -5 20 -46t71 -69.5t51 -5.5z" />
    <glyph glyph-name="uacute" unicode="&#xfa;" horiz-adv-x="265" 
d="M17 743q-6 -10 -6 -27q3 -39 -0.5 -108.5t-2.5 -102.5q1 -24 -2 -140q-6 -122 0 -187q2 -49 8 -68q8 -27 13 -34q23 -57 77 -74.5t98 27.5q27 31 42 108q7 39 10.5 95.5t4 97.5t-0.5 115.5t-1 99.5q0 137 -7 184q-3 9 -27.5 17t-33.5 -4q-6 -11 -9.5 -55.5t-4 -107
t-0.5 -117.5t1 -109.5t1 -60.5v-24v-46.5t-1 -40.5t-3.5 -38t-7 -28.5t-11.5 -24t-17 -12.5q-24 -8 -38 19q-18 33 -22 81t0.5 126t4.5 101q0 209 -10 329q0 17 -23.5 19.5t-31.5 -10.5zM124 797q8 -3 11 -2t14 9q32 23 35 26l61 66q15 21 -1 46q-5 7 -12 8.5t-11 6.5
q-7 10 -43 -29t-55.5 -77.5t1.5 -53.5z" />
    <glyph glyph-name="udieresis" unicode="&#xfc;" horiz-adv-x="265" 
d="M17 743q-6 -10 -6 -27q3 -39 -0.5 -108.5t-2.5 -102.5q1 -24 -2 -140q-6 -122 0 -187q2 -49 8 -68q8 -27 13 -34q23 -57 77 -74.5t98 27.5q27 31 42 108q7 39 10.5 95.5t4 97.5t-0.5 115.5t-1 99.5q0 137 -7 184q-3 9 -27.5 17t-33.5 -4q-6 -11 -9.5 -55.5t-4 -107
t-0.5 -117.5t1 -109.5t1 -60.5v-24v-46.5t-1 -40.5t-3.5 -38t-7 -28.5t-11.5 -24t-17 -12.5q-24 -8 -38 19q-18 33 -22 81t0.5 126t4.5 101q0 209 -10 329q0 17 -23.5 19.5t-31.5 -10.5zM284 853l-2 8q-2 8 -4 11q-19 29 -53 31q-20 0 -33 -10q-12 -13 -10 -37t25 -33
q23 -12 51 -4q23 6 26 34zM284 853l-2 8q-2 8 -4 11q-19 29 -53 31q-20 0 -33 -10q-12 -13 -10 -37t25 -33q23 -12 51 -4q23 6 26 34zM284 853l-2 8q-2 8 -4 11q-19 29 -53 31q-20 0 -33 -10q-12 -13 -10 -37t25 -33q23 -12 51 -4q23 6 26 34zM94 863l-2 8q-2 8 -4 11
q-19 29 -53 31q-21 0 -33 -10q-12 -13 -10 -37t25 -33q23 -12 51 -4q23 6 26 34zM94 863l-2 8q-2 8 -4 11q-19 29 -53 31q-21 0 -33 -10q-12 -13 -10 -37t25 -33q23 -12 51 -4q23 6 26 34zM94 863l-2 8q-2 8 -4 11q-19 29 -53 31q-21 0 -33 -10q-12 -13 -10 -37t25 -33
q23 -12 51 -4q23 6 26 34z" />
    <glyph glyph-name="tilde" unicode="&#x2dc;" horiz-adv-x="400" 
d="M177 661q8 -4 10 -4q14 2 20 4q24 4 38 3t81 -1q13 0 26 11q6 4 6 12q0 13 -10 19q-16 11 -34 10q-28 0 -53 -3q-8 -1 -35 -2t-35 -1l-78 -6q-3 0 -11 0.5t-12 0.5q-18 2 -29 2q-21 0 -28 -18q-1 -2 -1 -7v-9l3 -6q3 -5 8.5 -8t16.5 -3q5 0 11 -2h10q45 0 67 1q21 0 29 7
z" />
    <glyph glyph-name="bullet" unicode="&#x2022;" horiz-adv-x="250" 
d="M219 303q-1 3 -2 11t-3 14t-5 10q-31 49 -92 52q-33 4 -53 -19q-14 -16 -19 -39t4.5 -47t36.5 -35q46 -18 90 -5q38 9 43 58z" />
    <glyph glyph-name="ellipsis" unicode="&#x2026;" horiz-adv-x="0" 
d="M137 60q0 1 -2 8.5t-4 10.5q-19 29 -53 31q-21 0 -31 -11q-13 -12 -11.5 -36t24.5 -33q23 -12 52 -4q22 6 25 34zM137 60q0 1 -2 8.5t-4 10.5q-19 29 -53 31q-21 0 -31 -11q-13 -12 -11.5 -36t24.5 -33q23 -12 52 -4q22 6 25 34zM137 60q0 1 -2 8.5t-4 10.5
q-19 29 -53 31q-21 0 -31 -11q-13 -12 -11.5 -36t24.5 -33q23 -12 52 -4q22 6 25 34z" />
    <glyph glyph-name="guilsinglleft" unicode="&#x2039;" horiz-adv-x="300" 
d="M273 392q-34 9 -48 -12q-28 -14 -30 -16q-1 -1 -13 -6t-17 -11q-6 -1 -11.5 -4t-13 -8t-12.5 -8q-46 -26 -70 -44q-2 1 -4 0t-4.5 -4t-5.5 -4q-2 -1 -19 -20q-9 -1 -12.5 -8.5t0.5 -13.5q-3 -10 5 -27q2 -3 19 -18q10 -7 40.5 -24t44.5 -31q54 -32 59 -34q4 -7 31 -3
q20 5 25 24q0 7 -9.5 18t-20.5 20t-23.5 18.5t-14.5 11.5q-6 2 -15.5 8t-11.5 7q-2 3 -6.5 8t-6.5 8q-19 17 -4 32q8 4 9 10q4 2 21 12.5t28.5 16t23.5 8.5q10 5 32 14.5t34 16.5q4 2 8.5 7t8.5 7q15 9 6 23q-3 21 -23 26zM138 317l2 6l-2 -6v0zM138 317v0l2 6z" />
    <glyph glyph-name="guilsinglright" unicode="&#x203a;" horiz-adv-x="300" 
d="M67 104q35 0 43 25q2 2 7 6t9.5 8.5t7.5 9.5q2 2 7 6t9.5 8.5t7.5 9.5q5 3 9.5 7.5t10.5 11.5t10 11q37 37 55 61q3 0 4.5 1.5t3.5 5t4 5.5l12 24q19 10 6 25q0 12 -12 24q-4 4 -24 12q-11 4 -45.5 12t-51.5 18q-60 16 -66 16q-6 6 -30 -6q-18 -9 -18 -30q3 -8 20 -17.5
t40 -19t24 -9.5q7 0 17.5 -3.5t12.5 -3.5q3 -3 9 -6t9 -6q22 -11 12 -30q-6 -6 -6 -12q-3 -3 -16.5 -17.5t-23 -23t-20.5 -14.5q-9 -9 -27.5 -24t-27.5 -24q-3 -3 -6 -9t-6 -9q-5 -5 -5 -12t5 -12q9 -19 30 -19zM176 213v-6v6v0zM176 213v0v-6v6z" />
    <glyph glyph-name="minus" unicode="&#x2212;" horiz-adv-x="500" 
d="M161 266q8 -4 10 -4q14 2 20 4q22 3 92 1.5t92 -3.5q13 -1 81 -1q13 0 26 11q6 4 6 12q0 13 -10 19q-16 11 -34 10q-28 0 -53 -3q-7 0 -107 1.5t-109 0.5t-24.5 -2.5t-28.5 -2.5t-25 -1q-3 0 -11 0.5t-12 0.5q-18 2 -29 2q-21 0 -28 -18q-1 -2 -1 -7v-9l3 -5q3 -6 8.5 -9
t16.5 -3q5 0 11 -2h10q45 0 67 1q21 0 29 7z" />
    </font>
</defs>
</svg>
