<?xml version="1.0" standalone="no"?>
<!DOCTYPE svg PUBLIC "-//W3C//DTD SVG 20010904//EN"
 "http://www.w3.org/TR/2001/REC-SVG-20010904/DTD/svg10.dtd">
<svg version="1.0" xmlns="http://www.w3.org/2000/svg"
 width="150.000000pt" height="150.000000pt" viewBox="0 0 150.000000 150.000000"
 preserveAspectRatio="xMidYMid meet">
<metadata>
Created by potrace 1.11, written by Peter Selinger 2001-2013
</metadata>
<g transform="translate(0.000000,150.000000) scale(0.100000,-0.100000)"
fill="#000000" stroke="none">
<path d="M573 1445 c-26 -6 -66 -20 -88 -30 -41 -19 -160 -133 -150 -143 3 -3
-1 -15 -9 -27 -33 -50 -37 -105 -37 -508 -1 -427 -1 -428 49 -520 47 -87 167
-170 249 -171 24 -1 43 -3 43 -6 0 -10 285 0 320 11 122 40 219 140 245 254 6
28 13 138 14 247 2 177 1 197 -15 206 -14 8 -17 26 -18 111 -1 74 1 101 10
101 7 0 16 10 20 22 5 16 1 26 -14 38 l-20 17 20 17 c16 14 19 26 15 60 -7 58
-36 143 -53 157 -8 6 -14 17 -14 24 0 19 -83 90 -133 114 -23 11 -58 23 -77
27 -58 11 -306 10 -357 -1z"/>
</g>
</svg>
