<?xml version="1.0" standalone="no"?>
<!DOCTYPE svg PUBLIC "-//W3C//DTD SVG 20010904//EN"
 "http://www.w3.org/TR/2001/REC-SVG-20010904/DTD/svg10.dtd">
<svg version="1.0" xmlns="http://www.w3.org/2000/svg"
 width="340.000000pt" height="340.000000pt" viewBox="0 0 340.000000 340.000000"
 preserveAspectRatio="xMidYMid meet">
<metadata>
Created by potrace 1.11, written by Peter Selinger 2001-2013
</metadata>
<g transform="translate(0.000000,340.000000) scale(0.100000,-0.100000)"
fill="#000000" stroke="none">
<path d="M1315 3169 c-16 -5 -43 -12 -60 -14 -175 -31 -372 -183 -479 -368
-24 -42 -80 -178 -76 -185 1 -1 -2 -17 -6 -35 -4 -17 -8 -50 -9 -73 -1 -22 -5
-45 -9 -52 -4 -7 -2 -12 4 -12 6 0 8 -5 3 -12 -10 -17 -10 -78 0 -78 4 0 4 -8
-1 -17 -9 -21 -8 -1446 2 -1518 3 -27 10 -52 14 -55 4 -3 8 -14 9 -26 1 -11 8
-34 14 -50 7 -16 13 -31 14 -34 20 -53 29 -70 36 -70 5 0 9 -6 9 -14 0 -14
105 -156 124 -168 6 -3 25 -18 41 -33 77 -67 175 -119 294 -155 38 -12 75 -19
80 -16 5 4 12 2 15 -2 9 -14 495 -21 636 -9 138 11 283 72 397 165 37 31 77
67 88 81 10 13 30 36 42 49 13 14 23 28 23 33 0 4 6 14 13 21 17 18 60 111 81
178 29 92 32 104 31 137 0 18 2 33 5 33 8 0 12 879 5 1408 -3 269 -5 298 -26
360 -50 153 -131 265 -265 367 -27 21 -51 40 -54 44 -16 20 -187 94 -245 105
-16 4 -41 9 -55 12 -42 10 -663 12 -695 3z"/>
</g>
</svg>
